<?xml version="1.0" encoding="utf-8"?>
<!-- Generator: Adobe Illustrator 23.0.5, SVG Export Plug-In . SVG Version: 6.00 Build 0)  -->
<svg version="1.1" id="Слой_1" xmlns="http://www.w3.org/2000/svg" xmlns:xlink="http://www.w3.org/1999/xlink" x="0px" y="0px"
	 viewBox="0 0 50 50" style="enable-background:new 0 0 50 50;" xml:space="preserve">
<style type="text/css">
	.st0{fill:#FFFFFF;}
</style>
<g>
	<g>
		<path class="st0" d="M19.6,47.66c0-5.04,0-10.06,0-15.09c-0.08,0-0.15,0-0.22,0c-6,0-12,0-18,0c-0.59,0-1-0.29-1.14-0.8
			c-0.03-0.12-0.04-0.26-0.04-0.39c0-9.63,0-19.26,0-28.89c0-0.59,0.24-0.98,0.7-1.15c0.09-0.03,0.2-0.06,0.3-0.06
			c2.85,0,5.7,0,8.54,0c0.05,0,0.1,0.01,0.16,0.01c0,0.72,0,1.42,0,2.15c-2.51,0-5.01,0-7.53,0c0,9,0,17.97,0,26.96
			c15.09,0,30.17,0,45.27,0c0-8.98,0-17.95,0-26.94c-2.5,0-5,0-7.52,0c0-0.72,0-1.43,0-2.17c0.06,0,0.12,0,0.18,0
			c2.79,0,5.57,0,8.36,0c0.7,0,1.16,0.46,1.16,1.16c0,9.65,0,19.31,0,28.96c0,0.71-0.46,1.16-1.18,1.16c-6,0-12,0-18,0
			c-0.07,0-0.14,0-0.22,0c0,5.04,0,10.06,0,15.09c0.07,0,0.13,0,0.19,0c0.64,0,1.28,0,1.92,0c0.62,0,1.09,0.43,1.12,1
			c0.04,0.62-0.41,1.12-1.03,1.16c-0.05,0-0.1,0-0.15,0c-5,0-10,0-15,0c-0.54,0-0.99-0.34-1.1-0.83c-0.16-0.69,0.35-1.33,1.07-1.33
			c0.66,0,1.32,0,1.99,0C19.47,47.66,19.53,47.66,19.6,47.66z M28.23,47.66c0-5.04,0-10.06,0-15.07c-2.16,0-4.31,0-6.45,0
			c0,5.03,0,10.05,0,15.07C23.93,47.66,26.08,47.66,28.23,47.66z"/>
		<path class="st0" d="M22.83,1.3c0,0.72,0,1.43,0,2.14c-2.87,0-5.73,0-8.6,0c0-0.72,0-1.42,0-2.14C17.09,1.3,19.95,1.3,22.83,1.3z"
			/>
		<path class="st0" d="M35.77,1.31c0,0.72,0,1.42,0,2.14c-2.87,0-5.73,0-8.61,0c0-0.71,0-1.42,0-2.14
			C30.03,1.31,32.89,1.31,35.77,1.31z"/>
		<path class="st0" d="M10.98,4.52c0-0.07,0-0.14,0-0.2c0-1.02,0-2.05,0-3.07c0-0.55,0.43-1,1.01-1.07
			c0.48-0.06,0.99,0.31,1.11,0.81c0.03,0.14,0.03,0.28,0.03,0.42c0,0.98,0,1.97,0,2.95c0,0.12,0.03,0.16,0.16,0.18
			c0.55,0.06,0.96,0.55,0.94,1.09c-0.02,0.57-0.46,1.04-1.02,1.05c-0.8,0.02-1.61,0.02-2.41,0c-0.54-0.01-0.99-0.51-1-1.05
			c-0.01-0.58,0.43-1.05,1.01-1.1C10.85,4.52,10.9,4.52,10.98,4.52z"/>
		<path class="st0" d="M36.87,4.52c0-0.2,0-0.39,0-0.57c0-0.89,0.01-1.78,0-2.67c-0.01-0.5,0.35-1.06,1.07-1.1
			c0.58-0.03,1.08,0.46,1.08,1.07c0.01,1.04,0,2.07,0,3.11c0,0.12,0.03,0.18,0.16,0.19c0.55,0.06,0.95,0.54,0.93,1.09
			c-0.02,0.57-0.46,1.03-1.03,1.04c-0.8,0.01-1.6,0.01-2.39,0c-0.55-0.01-1-0.5-1.01-1.06c-0.01-0.58,0.43-1.05,1.01-1.09
			C36.74,4.52,36.79,4.52,36.87,4.52z"/>
		<path class="st0" d="M23.92,4.51c0-0.32,0-0.64,0-0.96c0-0.75,0.01-1.51,0-2.26c-0.01-0.5,0.35-1.08,1.07-1.12
			c0.59-0.03,1.08,0.46,1.09,1.08c0.01,1.01,0.01,2.01,0,3.02c0,0.17,0.02,0.25,0.23,0.27c0.48,0.06,0.85,0.51,0.87,1.02
			c0.02,0.49-0.34,0.96-0.82,1.07c-0.1,0.02-0.2,0.03-0.3,0.03c-0.72,0-1.45,0-2.17,0c-0.54,0-1-0.4-1.07-0.91
			c-0.08-0.56,0.24-1.06,0.78-1.21C23.69,4.54,23.8,4.53,23.92,4.51z"/>
	</g>
	<rect x="5.89" y="8.31" class="st0" width="38.37" height="18.37"/>
</g>
</svg>
