<svg id="Слой_1" xmlns="http://www.w3.org/2000/svg" xmlns:xlink="http://www.w3.org/1999/xlink" viewBox="0 0 50 50" style="enable-background:new 0 0 50 50"><style>.st0{fill:#fff}</style><g><g><path class="st0" d="M19.6 47.66c0-5.04.0-10.06.0-15.09-.08.0-.15.0-.22.0-6 0-12 0-18 0-.59.0-1-.29-1.14-.8-.03-.12-.04-.26-.04-.39.0-9.63.0-19.26.0-28.89.0-.59.24-.98.7-1.15.09-.03.2-.06.3-.06 2.85.0 5.7.0 8.54.0.05.0.1.01.16.01.0.72.0 1.42.0 2.15-2.51.0-5.01.0-7.53.0.0 9 0 17.97.0 26.96 15.09.0 30.17.0 45.27.0.0-8.98.0-17.95.0-26.94-2.5.0-5 0-7.52.0.0-.72.0-1.43.0-2.17.06.0.12.0.18.0 2.79.0 5.57.0 8.36.0.7.0 1.16.46 1.16 1.16.0 9.65.0 19.31.0 28.96.0.71-.46 1.16-1.18 1.16-6 0-12 0-18 0-.07.0-.14.0-.22.0.0 5.04.0 10.06.0 15.09.07.0.13.0.19.0.64.0 1.28.0 1.92.0.62.0 1.09.43 1.12 1 .04.62-.41 1.12-1.03 1.16-.05.0-.1.0-.15.0-5 0-10 0-15 0-.54.0-.99-.34-1.1-.83-.16-.69.35-1.33 1.07-1.33.66.0 1.32.0 1.99.0C19.47 47.66 19.53 47.66 19.6 47.66zM28.23 47.66c0-5.04.0-10.06.0-15.07-2.16.0-4.31.0-6.45.0.0 5.03.0 10.05.0 15.07C23.93 47.66 26.08 47.66 28.23 47.66z"/><path class="st0" d="M22.83 1.3c0 .72.0 1.43.0 2.14-2.87.0-5.73.0-8.6.0.0-.72.0-1.42.0-2.14C17.09 1.3 19.95 1.3 22.83 1.3z"
			/><path class="st0" d="M35.77 1.31c0 .72.0 1.42.0 2.14-2.87.0-5.73.0-8.61.0.0-.71.0-1.42.0-2.14C30.03 1.31 32.89 1.31 35.77 1.31z"/><path class="st0" d="M10.98 4.52c0-.07.0-.14.0-.2.0-1.02.0-2.05.0-3.07.0-.55.43-1 1.01-1.07.48-.06.99.31 1.11.81.03.14.03.28.03.42.0.98.0 1.97.0 2.95.0.12.03.16.16.18.55.06.96.55.94 1.09-.02.57-.46 1.04-1.02 1.05-.8.02-1.61.02-2.41.0-.54-.01-.99-.51-1-1.05-.01-.58.43-1.05 1.01-1.1C10.85 4.52 10.9 4.52 10.98 4.52z"/><path class="st0" d="M36.87 4.52c0-.2.0-.39.0-.57.0-.89.01-1.78.0-2.67-.01-.5.35-1.06 1.07-1.1.58-.03 1.08.46 1.08 1.07.01 1.04.0 2.07.0 3.11.0.12.03.18.16.19.55.06.95.54.93 1.09-.02.57-.46 1.03-1.03 1.04-.8.01-1.6.01-2.39.0-.55-.01-1-.5-1.01-1.06-.01-.58.43-1.05 1.01-1.09C36.74 4.52 36.79 4.52 36.87 4.52z"/><path class="st0" d="M23.92 4.51c0-.32.0-.64.0-.96.0-.75.01-1.51.0-2.26-.01-.5.35-1.08 1.07-1.12.59-.03 1.08.46 1.09 1.08.01 1.01.01 2.01.0 3.02.0.17.02.25.23.27.48.06.85.51.87 1.02.02.49-.34.96-.82 1.07-.1.02-.2.03-.3.03-.72.0-1.45.0-2.17.0-.54.0-1-.4-1.07-.91-.08-.56.24-1.06.78-1.21C23.69 4.54 23.8 4.53 23.92 4.51z"/></g><path class="st0" d="M5.89 8.31h38.37v18.37H5.89z"/></g></svg>