<svg id="Layer_1" xmlns="http://www.w3.org/2000/svg" xmlns:xlink="http://www.w3.org/1999/xlink" viewBox="0 0 59 59" style="enable-background:new 0 0 59 59"><style>.st0{fill:#fff}</style><g><path class="st0" d="M29.49 59c-9.32.0-18.65.0-27.97.0-1.17.0-1.51-.34-1.51-1.52.0-9.63.01-19.26-.01-28.89.0-.8.31-1.24 1.02-1.55 5.49-2.47 10.97-4.95 16.46-7.43 1.16-.52 2.31-1.06 3.48-1.56.34-.14.45-.32.44-.68-.01-2.78.0-5.57-.02-8.35.0-.67.26-1.05.87-1.33 4.95-2.19 9.89-4.39 14.83-6.6.22-.1.43-.19.65-.29 2.45-1.1 1.68-.98 4.13-.19C47.08 2.28 52.28 4 57.48 5.7c.4.13.82.23 1.12.56.24.27.41.58.4.96.0.1.0.2.0.31.0 16.64.0 33.28.0 49.93.0 1.21-.33 1.54-1.54 1.54C48.13 59 38.81 59 29.49 59zM23.86 16.69c.21-.08.36-.13.52-.19 1.36-.61 2.73-1.21 4.08-1.85.48-.23.93-.23 1.42-.06 4.73 1.66 9.47 3.32 14.2 4.98.98.34 1.17.61 1.17 1.63.0 11.6.0 23.19-.01 34.79.0.44.1.57.56.57 3.36-.02 6.72-.03 10.08.0.55.0.63-.17.63-.66-.01-15.76-.01-31.51.0-47.27.0-.46-.14-.65-.57-.78-5.23-1.68-10.45-3.37-15.67-5.07-.28-.09-.53-.1-.82.03C34.35 5.1 29.26 7.37 24.16 9.63c-.25.11-.31.26-.31.5.01.92.0 1.83.0 2.75C23.86 14.14 23.86 15.39 23.86 16.69zm4 20.44c0-6.3.0-12.6.0-18.9.0-.56-.01-.57-.5-.35-3.92 1.75-7.83 3.51-11.74 5.27-4.24 1.9-8.47 3.81-12.72 5.7-.37.16-.43.38-.43.74.01 8.78.01 17.56.0 26.34.0.47.09.63.6.63 8.07-.02 16.13-.02 24.2.0.5.0.61-.14.61-.62C27.85 49.66 27.86 43.4 27.86 37.13zM30.4 17.42c-.01.16-.02.26-.02.36.0 12.77.0 25.54-.01 38.3.0.4.13.47.49.47 3.79-.01 7.57-.01 11.36.0.39.0.52-.09.52-.5-.01-11.31-.01-22.62.0-33.92.0-.36-.13-.5-.45-.61-2.97-1.01-5.93-2.04-8.89-3.07C32.41 18.11 31.42 17.77 30.4 17.42z"/><path class="st0" d="M49.14 30.46c0-.78.0-1.56.0-2.34.0-.81.43-1.29 1.16-1.32.78-.03 1.31.45 1.34 1.26.02.54.01 1.08.01 1.63.0 1.07.01 2.14.0 3.2-.02.92-.69 1.48-1.54 1.3-.59-.12-.96-.56-.96-1.2C49.13 32.15 49.14 31.31 49.14 30.46z"/><path class="st0" d="M49.14 13.25c0-.78.0-1.56.0-2.34.0-.81.47-1.31 1.22-1.32.75.0 1.26.49 1.28 1.28.02.73.01 1.46.01 2.19.0.81.01 1.63.0 2.44-.01.88-.49 1.39-1.27 1.39-.81.0-1.23-.48-1.23-1.4C49.14 14.75 49.14 14 49.14 13.25z"/><path class="st0" d="M49.14 47.78c0-.78.0-1.56.0-2.34.0-.81.43-1.29 1.16-1.32.78-.03 1.31.45 1.34 1.27.02.59.01 1.19.01 1.78.0.98.01 1.97.0 2.95-.01.7-.34 1.11-.96 1.26-.57.14-1.12-.09-1.4-.57-.12-.21-.15-.44-.15-.69C49.14 49.34 49.14 48.56 49.14 47.78z"/><path class="st0" d="M49.14 39.15c0-.76.0-1.53.0-2.29.0-.85.42-1.31 1.19-1.32.82-.02 1.28.41 1.31 1.27.03.83.01 1.66.01 2.49.0.7.01 1.39.0 2.09-.01.94-.45 1.41-1.29 1.4-.81-.01-1.22-.47-1.22-1.41C49.14 40.65 49.14 39.9 49.14 39.15z"/><path class="st0" d="M51.65 21.67c0 .96.02 1.72.0 2.48-.02.91-.5 1.36-1.37 1.32-.66-.03-1.12-.46-1.13-1.13-.02-1.66-.02-3.32.0-4.98.01-.65.44-1.09 1.07-1.13.79-.06 1.25.24 1.38.95C51.74 20.07 51.6 20.97 51.65 21.67z"
		/><path class="st0" d="M14.28 51.36c2.87.0 5.73.0 8.6.0 1.01.0 1.59.78 1.28 1.7-.17.5-.56.79-1.16.82-.44.02-.88.01-1.32.01-5.31.0-10.62.0-15.93.0-.92.0-1.45-.47-1.46-1.26.0-.8.5-1.26 1.39-1.27 2.24.0 4.48.0 6.72.0C13.03 51.36 13.66 51.36 14.28 51.36z"/><path class="st0" d="M5.59 47.36c-.66-.01-1.21-.5-1.29-1.15-.08-.61.28-1.17.96-1.3.74-.15 1.51-.2 2.27-.28 2.48-.27 4.95-.53 7.43-.79 2.41-.25 4.82-.5 7.23-.75.19-.02.37-.05.55-.08.8-.1 1.4.36 1.51 1.15.09.65-.41 1.26-1.17 1.35-1.67.19-3.34.35-5 .53-2.11.22-4.21.45-6.32.67C9.7 46.93 7.65 47.15 5.59 47.36z"/><path class="st0" d="M1.33 32.86l26.54-11.01.7 17.32c0 0-27.43 3.15-27.24 2.77C1.52 41.56 1.33 32.86 1.33 32.86z"/><path class="st0" d="M32.95 22.74 40.18 24.53V53.76H32.95z"/></g></svg>