<?xml version="1.0" encoding="utf-8"?>
<!-- Generator: Adobe Illustrator 23.0.5, SVG Export Plug-In . SVG Version: 6.00 Build 0)  -->
<svg version="1.1" id="Layer_1" xmlns="http://www.w3.org/2000/svg" xmlns:xlink="http://www.w3.org/1999/xlink" x="0px" y="0px"
	 viewBox="0 0 59 59" style="enable-background:new 0 0 59 59;" xml:space="preserve">
<style type="text/css">
	.st0{fill:#FFFFFF;}
</style>
<g>
	<path class="st0" d="M29.49,59c-9.32,0-18.65,0-27.97,0c-1.17,0-1.51-0.34-1.51-1.52c0-9.63,0.01-19.26-0.01-28.89
		c0-0.8,0.31-1.24,1.02-1.55c5.49-2.47,10.97-4.95,16.46-7.43c1.16-0.52,2.31-1.06,3.48-1.56c0.34-0.14,0.45-0.32,0.44-0.68
		c-0.01-2.78,0-5.57-0.02-8.35c0-0.67,0.26-1.05,0.87-1.33c4.95-2.19,9.89-4.39,14.83-6.6c0.22-0.1,0.43-0.19,0.65-0.29
		c2.45-1.1,1.68-0.98,4.13-0.19C47.08,2.28,52.28,4,57.48,5.7c0.4,0.13,0.82,0.23,1.12,0.56c0.24,0.27,0.41,0.58,0.4,0.96
		c0,0.1,0,0.2,0,0.31c0,16.64,0,33.28,0,49.93c0,1.21-0.33,1.54-1.54,1.54C48.13,59,38.81,59,29.49,59z M23.86,16.69
		c0.21-0.08,0.36-0.13,0.52-0.19c1.36-0.61,2.73-1.21,4.08-1.85c0.48-0.23,0.93-0.23,1.42-0.06c4.73,1.66,9.47,3.32,14.2,4.98
		c0.98,0.34,1.17,0.61,1.17,1.63c0,11.6,0,23.19-0.01,34.79c0,0.44,0.1,0.57,0.56,0.57c3.36-0.02,6.72-0.03,10.08,0
		c0.55,0,0.63-0.17,0.63-0.66c-0.01-15.76-0.01-31.51,0-47.27c0-0.46-0.14-0.65-0.57-0.78c-5.23-1.68-10.45-3.37-15.67-5.07
		c-0.28-0.09-0.53-0.1-0.82,0.03C34.35,5.1,29.26,7.37,24.16,9.63c-0.25,0.11-0.31,0.26-0.31,0.5c0.01,0.92,0,1.83,0,2.75
		C23.86,14.14,23.86,15.39,23.86,16.69z M27.86,37.13c0-6.3,0-12.6,0-18.9c0-0.56-0.01-0.57-0.5-0.35
		c-3.92,1.75-7.83,3.51-11.74,5.27c-4.24,1.9-8.47,3.81-12.72,5.7c-0.37,0.16-0.43,0.38-0.43,0.74c0.01,8.78,0.01,17.56,0,26.34
		c0,0.47,0.09,0.63,0.6,0.63c8.07-0.02,16.13-0.02,24.2,0c0.5,0,0.61-0.14,0.61-0.62C27.85,49.66,27.86,43.4,27.86,37.13z
		 M30.4,17.42c-0.01,0.16-0.02,0.26-0.02,0.36c0,12.77,0,25.54-0.01,38.3c0,0.4,0.13,0.47,0.49,0.47c3.79-0.01,7.57-0.01,11.36,0
		c0.39,0,0.52-0.09,0.52-0.5c-0.01-11.31-0.01-22.62,0-33.92c0-0.36-0.13-0.5-0.45-0.61c-2.97-1.01-5.93-2.04-8.89-3.07
		C32.41,18.11,31.42,17.77,30.4,17.42z"/>
	<path class="st0" d="M49.14,30.46c0-0.78,0-1.56,0-2.34c0-0.81,0.43-1.29,1.16-1.32c0.78-0.03,1.31,0.45,1.34,1.26
		c0.02,0.54,0.01,1.08,0.01,1.63c0,1.07,0.01,2.14,0,3.2c-0.02,0.92-0.69,1.48-1.54,1.3c-0.59-0.12-0.96-0.56-0.96-1.2
		C49.13,32.15,49.14,31.31,49.14,30.46z"/>
	<path class="st0" d="M49.14,13.25c0-0.78,0-1.56,0-2.34c0-0.81,0.47-1.31,1.22-1.32c0.75,0,1.26,0.49,1.28,1.28
		c0.02,0.73,0.01,1.46,0.01,2.19c0,0.81,0.01,1.63,0,2.44c-0.01,0.88-0.49,1.39-1.27,1.39c-0.81,0-1.23-0.48-1.23-1.4
		C49.14,14.75,49.14,14,49.14,13.25z"/>
	<path class="st0" d="M49.14,47.78c0-0.78,0-1.56,0-2.34c0-0.81,0.43-1.29,1.16-1.32c0.78-0.03,1.31,0.45,1.34,1.27
		c0.02,0.59,0.01,1.19,0.01,1.78c0,0.98,0.01,1.97,0,2.95c-0.01,0.7-0.34,1.11-0.96,1.26c-0.57,0.14-1.12-0.09-1.4-0.57
		c-0.12-0.21-0.15-0.44-0.15-0.69C49.14,49.34,49.14,48.56,49.14,47.78z"/>
	<path class="st0" d="M49.14,39.15c0-0.76,0-1.53,0-2.29c0-0.85,0.42-1.31,1.19-1.32c0.82-0.02,1.28,0.41,1.31,1.27
		c0.03,0.83,0.01,1.66,0.01,2.49c0,0.7,0.01,1.39,0,2.09c-0.01,0.94-0.45,1.41-1.29,1.4c-0.81-0.01-1.22-0.47-1.22-1.41
		C49.14,40.65,49.14,39.9,49.14,39.15z"/>
	<path class="st0" d="M51.65,21.67c0,0.96,0.02,1.72,0,2.48c-0.02,0.91-0.5,1.36-1.37,1.32c-0.66-0.03-1.12-0.46-1.13-1.13
		c-0.02-1.66-0.02-3.32,0-4.98c0.01-0.65,0.44-1.09,1.07-1.13c0.79-0.06,1.25,0.24,1.38,0.95C51.74,20.07,51.6,20.97,51.65,21.67z"
		/>
	<path class="st0" d="M14.28,51.36c2.87,0,5.73,0,8.6,0c1.01,0,1.59,0.78,1.28,1.7c-0.17,0.5-0.56,0.79-1.16,0.82
		c-0.44,0.02-0.88,0.01-1.32,0.01c-5.31,0-10.62,0-15.93,0c-0.92,0-1.45-0.47-1.46-1.26c0-0.8,0.5-1.26,1.39-1.27
		c2.24,0,4.48,0,6.72,0C13.03,51.36,13.66,51.36,14.28,51.36z"/>
	<path class="st0" d="M5.59,47.36c-0.66-0.01-1.21-0.5-1.29-1.15c-0.08-0.61,0.28-1.17,0.96-1.3c0.74-0.15,1.51-0.2,2.27-0.28
		c2.48-0.27,4.95-0.53,7.43-0.79c2.41-0.25,4.82-0.5,7.23-0.75c0.19-0.02,0.37-0.05,0.55-0.08c0.8-0.1,1.4,0.36,1.51,1.15
		c0.09,0.65-0.41,1.26-1.17,1.35c-1.67,0.19-3.34,0.35-5,0.53c-2.11,0.22-4.21,0.45-6.32,0.67C9.7,46.93,7.65,47.15,5.59,47.36z"/>
	<path class="st0" d="M1.33,32.86l26.54-11.01l0.7,17.32c0,0-27.43,3.15-27.24,2.77C1.52,41.56,1.33,32.86,1.33,32.86z"/>
	<polygon class="st0" points="32.95,22.74 40.18,24.53 40.18,53.76 32.95,53.76 	"/>
</g>
</svg>
