<?xml version="1.0" encoding="utf-8"?>
<!-- Generator: Adobe Illustrator 23.0.5, SVG Export Plug-In . SVG Version: 6.00 Build 0)  -->
<svg version="1.1" id="Layer_1" xmlns="http://www.w3.org/2000/svg" xmlns:xlink="http://www.w3.org/1999/xlink" x="0px" y="0px"
	 viewBox="0 0 43 43" style="enable-background:new 0 0 43 43;" xml:space="preserve">
<style type="text/css">
	.st0{clip-path:url(#SVGID_2_);}
	.st1{clip-path:url(#SVGID_4_);fill:#FFFFFF;}
</style>
<g>
	<g>
		<defs>
			<rect id="SVGID_1_" width="42.93" height="42.93"/>
		</defs>
		<clipPath id="SVGID_2_">
			<use xlink:href="#SVGID_1_"  style="overflow:visible;"/>
		</clipPath>
		<g class="st0">
			<defs>
				<rect id="SVGID_3_" y="0" width="42.93" height="42.93"/>
			</defs>
			<clipPath id="SVGID_4_">
				<use xlink:href="#SVGID_3_"  style="overflow:visible;"/>
			</clipPath>
			<path class="st1" d="M33.74,42.93H9.19C4.12,42.93,0,38.8,0,33.74V9.19C0,4.12,4.12,0,9.19,0h24.55c5.07,0,9.19,4.12,9.19,9.19
				v24.55C42.93,38.8,38.81,42.93,33.74,42.93 M9.19,5.01c-2.3,0-4.18,1.87-4.18,4.18v24.55c0,2.3,1.87,4.18,4.18,4.18h24.55
				c2.3,0,4.18-1.87,4.18-4.18V9.19c0-2.3-1.87-4.18-4.18-4.18H9.19z"/>
			<path class="st1" d="M21.46,33.32c-6.54,0-11.86-5.32-11.86-11.86c0-6.54,5.32-11.86,11.86-11.86s11.86,5.32,11.86,11.86
				C33.32,28,28,33.32,21.46,33.32 M21.46,14.62c-3.78,0-6.85,3.07-6.85,6.85c0,3.77,3.07,6.85,6.85,6.85
				c3.78,0,6.85-3.07,6.85-6.85C28.31,17.69,25.24,14.62,21.46,14.62"/>
			<path class="st1" d="M35.74,9.98c0,1.18-0.96,2.14-2.14,2.14s-2.13-0.96-2.13-2.14c0-1.18,0.96-2.13,2.13-2.13
				S35.74,8.8,35.74,9.98"/>
		</g>
	</g>
</g>
</svg>
