<svg id="Objects" xmlns="http://www.w3.org/2000/svg" xmlns:xlink="http://www.w3.org/1999/xlink" viewBox="0 0 19 19" style="enable-background:new 0 0 19 19"><style>.st0{fill:#185690}</style><g><g><path class="st0" d="M14.9 19H4.1C1.8 19 0 17.2.0 14.9V4.1C0 1.8 1.8.0 4.1.0H15C17.2.0 19 1.8 19 4.1V15C19 17.2 17.2 19 14.9 19zM4.1 2.2C3 2.2 2.2 3 2.2 4.1V15c0 1 .8 1.8 1.8 1.8h10.9c1 0 1.8-.8 1.8-1.8V4.1c0-1-.8-1.8-1.8-1.8H4.1z"/></g><g><path class="st0" d="M9.5 14.7c-2.9.0-5.2-2.4-5.2-5.2s2.4-5.2 5.2-5.2c2.9.0 5.2 2.4 5.2 5.2S12.4 14.7 9.5 14.7zm0-8.2c-1.7.0-3 1.4-3 3s1.4 3 3 3c1.7.0 3-1.4 3-3S11.2 6.5 9.5 6.5z"/></g><g><path class="st0" d="M15.8 4.4c0 .5-.4.9-.9.9-.5.0-.9-.4-.9-.9s.4-.9.9-.9C15.4 3.5 15.8 3.9 15.8 4.4z"/></g></g></svg>