<svg id="Слой_1" xmlns="http://www.w3.org/2000/svg" xmlns:xlink="http://www.w3.org/1999/xlink" viewBox="0 0 207.19 63.33" style="enable-background:new 0 0 207.19 63.33"><style>.st0{fill:#fff}.st1{fill-rule:evenodd;clip-rule:evenodd;fill:#fff}</style><g><path class="st0" d="M191.85 36.4c.71-2.89 1.5-6.89 2.17-9.21l2.21 9.21H191.85zM207.17 44.05c0 0-5.21-14.71-6.78-18.45-1.46-3.46-4.23-4.99-6.97-4.99-2.17.0-4.87.95-5.36 2.19-.3.73 1.72.79.19 4.13.0.03-6.44 17.12-6.44 17.12-.11.16.08.16.08.16h7.83c0 0 .19.0.26-.16.0.0.37-1.37.82-3.37h6.63l.94 3.37c.04.16.22.16.22.16h8.46C207.05 44.21 207.24 44.21 207.17 44.05zM180.96 21.47c-.07-.16-.3-.16-.3-.16s-.97.03-2.43.03c-10.41-.13-14.08-1.49-17.71.13-4.01 1.78-2.32 5.43-2.28 5.46.0.0.07.19.26.16 2.13-.35 4.31-.48 6.67-.44l-.11 12.96c0 3.72 2.62 5.24 5.58 5.24 2.21.0 4.68-1.33 5.09-2.41.37-.86-2.21.16-2.4-4.57l-.15-10.77c0 0 3.26.38 4.98-.06C182.57 25.92 180.96 21.47 180.96 21.47zM153.85 21.66c.04-.16-.19-.16-.19-.16h-6.89c0 0-.15-.03-.26.16l-7.57 13.28.34-2.67v-6.45c0-3.62-2.62-5.08-5.54-5.08-2.21.0-4.68 1.27-5.13 2.32-.34.83 1.95-.03 2.36 3.75.0.03-.04 2.06.0 17.25-.04.16.15.16.15.16h7.64c0 0 .22.0.3-.16 1.87-2.8 5.28-8.83 7.34-12.07l-.37 3.05-.19 9.02c-.08.16.15.16.15.16h7.79c0 0 .19.0.19-.16L153.85 21.66zM125.88 40.88c-2.92-.79-5.28-5.3-6.1-6.77-1.2-2.16-2.17-3.78-4.68-3.75-.04-2.38.71-4.45 2.25-4.45 1.27.0 1.09.98 1.09 1.62.0.41 6.52 1.81 7.19-2.79.41-2.7-2.32-4.35-5.62-4-5.54.57-8.24 5.08-8.16 9.94-.26.1-.9.1-1.16.22l.19-5.08c0-3.62-2.62-5.08-5.54-5.08-2.21.0-4.68 1.27-5.13 2.32-.34.83 1.95-.03 2.36 3.75.0.03-.04 2.06.0 17.25-.04.16.15.16.15.16h8.05c0 0 .19.0.19-.16l-.26-9.66c.3-.16 1.09-.19 1.39-.13.79 4.92 2.55 11.28 9.81 10.58C125.43 44.5 126.51 41.07 125.88 40.88z"/><path class="st0" d="M87.95 27.77c4.89 2.02 7.34 5.05 7.34 9.1.0 3.42-1.58 6.24-4.75 8.46-3.01 2.09-6.66 3.13-10.95 3.13-3.77.0-7.18-.86-10.22-2.59-3.37-1.92-5.05-4.37-5.05-7.34.0-.95.44-1.83 1.32-2.64.88-.82 1.9-1.22 3.07-1.22 1.28.0 2.47.54 3.55 1.61.92.98 1.86 1.97 2.83 2.98 1.28 1.08 2.83 1.61 4.63 1.61 1.56.0 2.84-.45 3.82-1.35.98-.9 1.47-1.98 1.47-3.25.0-1.47-.66-2.53-1.98-3.18-.8-.39-2.27-.73-4.39-1.03-2.77-.39-4.15-1.6-4.15-3.62.0-1.11.36-1.94 1.08-2.49.6-.46 1.62-.82 3.07-1.08 3.09-.59 4.63-1.81 4.63-3.67.0-2.05-1.2-3.08-3.61-3.08-1.72.0-3.21.39-4.45 1.17-.08.03-.94.75-2.59 2.15-.92.78-1.86 1.17-2.83 1.17-1.16.0-2.15-.33-2.95-1-.8-.67-1.2-1.48-1.2-2.42.0-.98.38-1.99 1.14-3.03 1.2-1.7 3.09-3.05 5.65-4.06 2.41-.98 4.87-1.47 7.4-1.47 3.57.0 6.66.91 9.26 2.74C91.7 15.22 93 17.56 93 20.43 93 23.34 91.32 25.78 87.95 27.77"/><path class="st1" d="M25.73.61c16.02-1.86 30.52 9.6 32.38 25.59 1.38 11.89-4.62 22.94-14.38 28.59-.34-.8-1.7-4.04-2.28-5.41-1.12-2.63-2.66-6.48-2.88-8.12-.35-2.62 5-9.4 5-9.4S50.9 22 50.81 16.72c-.09-5.27-2.19-5.64-2.62-5.5-.43.14-.38 1.78-.4 2.16-.02.39-.61 1.94-2.47 2.22-1.86.28-2.96 1.31-2.96 1.31s-6.34 6.05-8.75 7.86c-2.41 1.81-2.57 3.54-2.57 3.54s-.81-.48-2.03-.79c-1.94-.5-4.41-.43-6.91-.63-2.27-.17-4.55-.54-6.33-.47-2.25.08-3.97 1.54-5.35 1.74-1.38.2-3.1-.63-3.55-1.43-.45-.8-2.88.11.5 5.03C10.74 36.69 25.65 40 25.65 40s5.57.98 7.53 3.09c2.48 2.68 2.8 10.67 2.95 14.75-1.2.3-2.42.52-3.68.66C16.44 60.36 1.94 48.9.08 32.91-1.78 16.93 9.7 2.46 25.73.61"/><path class="st0" d="M205.04 58.35c0-1.11-.13-1.97-.39-2.57-.26-.61-.69-.91-1.27-.91-.58.0-.99.3-1.25.91-.26.61-.39 1.46-.39 2.57.0 1.11.13 1.97.38 2.58.25.61.67.92 1.26.92.6.0 1.02-.31 1.28-.92C204.91 60.32 205.04 59.46 205.04 58.35M207.19 58.35c0 1.77-.33 3.07-.99 3.91-.66.84-1.6 1.26-2.82 1.26-1.22.0-2.16-.42-2.82-1.26-.66-.84-.98-2.15-.98-3.91s.33-3.07.98-3.91c.66-.84 1.59-1.26 2.82-1.26 1.22.0 2.16.42 2.82 1.26C206.85 55.28 207.19 56.58 207.19 58.35zM194.94 57.62c.27.0.52-.02.76-.05.17-.17.31-.38.42-.64.11-.25.16-.53.16-.85.0-.79-.38-1.21-1.14-1.27h-.85v2.83c.09-.01.19-.02.3-.02C194.69 57.62 194.81 57.62 194.94 57.62zM194.89 58.95c-.11.0-.22.0-.33.01-.11.0-.2.01-.28.02v2.89c.08.0.16.0.24.01.08.01.16.01.24.01.6.0 1.04-.11 1.33-.33.29-.22.44-.63.44-1.23.0-.46-.14-.81-.42-1.04C195.84 59.07 195.43 58.95 194.89 58.95zM192.27 53.37c.25.0.62-.01 1.09-.05.47-.03.96-.05 1.45-.05 1.2.0 2.08.19 2.63.57.55.38.83 1.04.83 1.99.0.58-.12 1.05-.36 1.44-.24.38-.51.67-.82.86.21.07.41.16.6.28.19.12.35.27.48.45.14.18.24.4.33.67.08.26.12.57.12.92.0 1.01-.3 1.76-.89 2.25-.6.49-1.54.73-2.83.73-.53.0-1.04-.02-1.52-.05-.48-.04-.85-.05-1.11-.05V53.37zM191.09 55.08h-2.04v8.25h-2.1v-8.25h-2.06v-1.71h6.22L191.09 55.08zM180.13 58.36c0 .6.04 1.11.11 1.55.07.44.19.8.36 1.09.17.29.4.5.68.65.28.15.64.22 1.07.22.36.0.7-.05 1-.14.3-.1.52-.17.67-.23.05.26.1.53.14.79.05.27.09.53.14.79-.06.02-.16.06-.29.11-.13.05-.3.1-.49.16-.2.06-.42.1-.68.14-.26.04-.54.06-.86.06-1.35.0-2.37-.43-3.04-1.28-.68-.85-1.01-2.16-1.01-3.91.0-1.76.34-3.06 1.01-3.91.68-.85 1.69-1.28 3.04-1.28.31.0.6.02.86.06.26.04.48.09.68.14.2.06.36.11.49.16.13.05.23.09.29.11-.05.26-.1.53-.14.79-.05.27-.09.53-.14.79-.14-.06-.36-.14-.67-.23-.3-.1-.64-.14-1-.14-.43.0-.79.07-1.07.22-.28.15-.51.36-.68.65-.17.29-.29.65-.36 1.1C180.17 57.26 180.13 57.78 180.13 58.36zM177.2 55.08h-2.04v8.25h-2.1v-8.25H171v-1.71h6.22L177.2 55.08zM169.81 63.33h-2.09v-4.12h-2.71v4.12h-2.1v-9.96h2.1v4.16h2.71v-4.16h2.09V63.33zM156.1 63.33v-9.96h5.39v1.71h-3.27v2.3h2.48v1.6h-2.48v2.63h3.27v1.71H156.1zM152.22 55.18v8.14h-2.1v-9.96h4.86v1.82H152.22zM144.95 55.29c-.05.27-.12.6-.2.98-.09.38-.18.78-.27 1.21-.1.43-.2.87-.3 1.33-.11.46-.21.91-.31 1.34h2.15c-.09-.43-.19-.88-.3-1.34-.11-.46-.21-.9-.3-1.33-.1-.43-.18-.83-.27-1.21C145.07 55.89 145 55.56 144.95 55.29zM143.74 53.37c.07.0.14.0.2.0s.13.01.2.02v-.02h2.13l2.72 9.96h-2.23l-.45-1.73h-2.79l-.45 1.73h-2.12L143.74 53.37zM131.75 63.33v-9.96h5.39v1.71h-3.27v2.3h2.48v1.6h-2.48v2.63h3.27v1.71H131.75zM128.15 58.35c0-1.11-.13-1.97-.39-2.57-.26-.61-.69-.91-1.27-.91-.58.0-.99.3-1.25.91-.26.61-.39 1.46-.39 2.57.0 1.11.13 1.97.38 2.58.25.61.67.92 1.26.92.6.0 1.02-.31 1.28-.92C128.02 60.32 128.15 59.46 128.15 58.35zM130.3 58.35c0 1.77-.33 3.07-.99 3.91-.66.84-1.6 1.26-2.82 1.26-1.22.0-2.16-.42-2.82-1.26-.66-.84-.98-2.15-.98-3.91s.33-3.07.98-3.91c.66-.84 1.59-1.26 2.82-1.26 1.22.0 2.16.42 2.82 1.26C129.97 55.28 130.3 56.58 130.3 58.35zM121.23 63.33h-2.09v-4.12h-2.71v4.12h-2.1v-9.96h2.1v4.16h2.71v-4.16h2.09V63.33zM113.01 63.33h-2.12c-.01-.17-.03-.42-.05-.73-.03-.32-.05-.68-.08-1.07-.03-.4-.06-.82-.09-1.26-.04-.44-.07-.87-.09-1.28-.03-.41-.05-.79-.08-1.14-.03-.35-.04-.64-.05-.85-.05.16-.12.39-.2.7-.09.3-.18.64-.29 1-.11.36-.22.74-.33 1.14-.12.4-.23.77-.33 1.12-.11.35-.2.66-.28.94-.08.28-.14.48-.18.6h-1.44c-.04-.12-.1-.32-.19-.59-.09-.27-.18-.58-.29-.93-.11-.35-.22-.72-.33-1.11-.12-.39-.23-.77-.34-1.14-.11-.36-.21-.7-.3-1.01-.09-.31-.15-.55-.19-.72l-.42 6.34h-2.04l.95-9.96h2.04c.05.14.12.37.22.67s.2.66.33 1.06c.12.4.25.82.39 1.27.14.45.26.88.39 1.3.12.42.23.8.33 1.16.1.35.17.63.22.82.05-.19.13-.46.23-.81.1-.35.21-.73.33-1.15.12-.42.25-.85.39-1.3.14-.45.27-.88.39-1.28.13-.4.24-.76.33-1.07.1-.31.17-.53.22-.67h2.06L113.01 63.33zM98.69 55.29c-.05.27-.12.6-.2.98-.09.38-.18.78-.27 1.21-.1.43-.2.87-.3 1.33-.11.46-.21.91-.31 1.34h2.15c-.09-.43-.19-.88-.3-1.34-.11-.46-.21-.9-.3-1.33-.1-.43-.18-.83-.27-1.21C98.81 55.89 98.74 55.56 98.69 55.29zM97.48 53.37c.07.0.14.0.2.0.07.0.13.01.2.02v-.02h2.13l2.72 9.96h-2.23l-.45-1.73h-2.79l-.45 1.73h-2.12L97.48 53.37zM93.59 53.37v9.96H91.5v-8.19h-1.82c-.05 1.07-.11 2.07-.19 3-.08.93-.16 1.81-.25 2.63-.06.51-.17.94-.32 1.29-.15.34-.34.62-.57.82-.23.2-.49.34-.8.42-.31.08-.65.12-1.02.12-.07.0-.14.0-.2-.01-.06-.01-.12-.01-.18-.02l.03-1.54c.29-.02.53-.11.7-.27.18-.16.3-.43.37-.82.13-.94.24-2.01.32-3.2.08-1.2.15-2.59.21-4.19H93.59zM78.64 53.37h2.1v4.36l2.44-4.36h2.35l-2.82 4.51c.51.92 1.03 1.83 1.56 2.72.52.9 1.04 1.81 1.56 2.72h-2.5l-2.59-4.86v4.86h-2.1V53.37zM71.82 63.33v-9.96h5.39v1.71h-3.27v2.3h2.48v1.6h-2.48v2.63h3.27v1.71H71.82zM67 54.88c-.1.0-.2.0-.31.0-.11.0-.21.0-.33.02v3.6h.56c.43.0.79-.13 1.06-.39.27-.26.41-.74.41-1.42.0-.62-.12-1.07-.36-1.36C67.78 55.03 67.44 54.88 67 54.88zM64.32 53.37c.13.0.3.0.49-.01.2-.01.41-.02.64-.03.23-.01.47-.02.73-.03.25-.01.5-.02.74-.02 1.29.0 2.21.29 2.76.86.55.58.82 1.42.82 2.54.0.63-.09 1.16-.26 1.59-.18.43-.42.78-.73 1.05-.31.27-.68.46-1.09.58-.41.12-.86.17-1.35.17-.13.0-.25.0-.37-.01-.12-.01-.23-.01-.34-.02v3.28h-2.04V53.37z"/></g></svg>