<?xml version="1.0" encoding="utf-8"?>
<!-- Generator: Adobe Illustrator 23.0.5, SVG Export Plug-In . SVG Version: 6.00 Build 0)  -->
<svg version="1.1" id="Слой_1" xmlns="http://www.w3.org/2000/svg" xmlns:xlink="http://www.w3.org/1999/xlink" x="0px" y="0px"
	 viewBox="0 0 207.19 63.33" style="enable-background:new 0 0 207.19 63.33;" xml:space="preserve">
<style type="text/css">
	.st0{fill:#FFFFFF;}
	.st1{fill-rule:evenodd;clip-rule:evenodd;fill:#FFFFFF;}
</style>
<g>
	<path class="st0" d="M191.85,36.4c0.71-2.89,1.5-6.89,2.17-9.21l2.21,9.21H191.85z M207.17,44.05c0,0-5.21-14.71-6.78-18.45
		c-1.46-3.46-4.23-4.99-6.97-4.99c-2.17,0-4.87,0.95-5.36,2.19c-0.3,0.73,1.72,0.79,0.19,4.13c0,0.03-6.44,17.12-6.44,17.12
		c-0.11,0.16,0.08,0.16,0.08,0.16h7.83c0,0,0.19,0,0.26-0.16c0,0,0.37-1.37,0.82-3.37h6.63l0.94,3.37c0.04,0.16,0.22,0.16,0.22,0.16
		h8.46C207.05,44.21,207.24,44.21,207.17,44.05z M180.96,21.47c-0.07-0.16-0.3-0.16-0.3-0.16s-0.97,0.03-2.43,0.03
		c-10.41-0.13-14.08-1.49-17.71,0.13c-4.01,1.78-2.32,5.43-2.28,5.46c0,0,0.07,0.19,0.26,0.16c2.13-0.35,4.31-0.48,6.67-0.44
		l-0.11,12.96c0,3.72,2.62,5.24,5.58,5.24c2.21,0,4.68-1.33,5.09-2.41c0.37-0.86-2.21,0.16-2.4-4.57l-0.15-10.77
		c0,0,3.26,0.38,4.98-0.06C182.57,25.92,180.96,21.47,180.96,21.47z M153.85,21.66c0.04-0.16-0.19-0.16-0.19-0.16h-6.89
		c0,0-0.15-0.03-0.26,0.16l-7.57,13.28l0.34-2.67v-6.45c0-3.62-2.62-5.08-5.54-5.08c-2.21,0-4.68,1.27-5.13,2.32
		c-0.34,0.83,1.95-0.03,2.36,3.75c0,0.03-0.04,2.06,0,17.25c-0.04,0.16,0.15,0.16,0.15,0.16h7.64c0,0,0.22,0,0.3-0.16
		c1.87-2.8,5.28-8.83,7.34-12.07l-0.37,3.05l-0.19,9.02c-0.08,0.16,0.15,0.16,0.15,0.16h7.79c0,0,0.19,0,0.19-0.16L153.85,21.66z
		 M125.88,40.88c-2.92-0.79-5.28-5.3-6.1-6.77c-1.2-2.16-2.17-3.78-4.68-3.75c-0.04-2.38,0.71-4.45,2.25-4.45
		c1.27,0,1.09,0.98,1.09,1.62c0,0.41,6.52,1.81,7.19-2.79c0.41-2.7-2.32-4.35-5.62-4c-5.54,0.57-8.24,5.08-8.16,9.94
		c-0.26,0.1-0.9,0.1-1.16,0.22l0.19-5.08c0-3.62-2.62-5.08-5.54-5.08c-2.21,0-4.68,1.27-5.13,2.32c-0.34,0.83,1.95-0.03,2.36,3.75
		c0,0.03-0.04,2.06,0,17.25c-0.04,0.16,0.15,0.16,0.15,0.16h8.05c0,0,0.19,0,0.19-0.16l-0.26-9.66c0.3-0.16,1.09-0.19,1.39-0.13
		c0.79,4.92,2.55,11.28,9.81,10.58C125.43,44.5,126.51,41.07,125.88,40.88z"/>
	<path class="st0" d="M87.95,27.77c4.89,2.02,7.34,5.05,7.34,9.1c0,3.42-1.58,6.24-4.75,8.46c-3.01,2.09-6.66,3.13-10.95,3.13
		c-3.77,0-7.18-0.86-10.22-2.59c-3.37-1.92-5.05-4.37-5.05-7.34c0-0.95,0.44-1.83,1.32-2.64c0.88-0.82,1.9-1.22,3.07-1.22
		c1.28,0,2.47,0.54,3.55,1.61c0.92,0.98,1.86,1.97,2.83,2.98c1.28,1.08,2.83,1.61,4.63,1.61c1.56,0,2.84-0.45,3.82-1.35
		c0.98-0.9,1.47-1.98,1.47-3.25c0-1.47-0.66-2.53-1.98-3.18c-0.8-0.39-2.27-0.73-4.39-1.03c-2.77-0.39-4.15-1.6-4.15-3.62
		c0-1.11,0.36-1.94,1.08-2.49c0.6-0.46,1.62-0.82,3.07-1.08c3.09-0.59,4.63-1.81,4.63-3.67c0-2.05-1.2-3.08-3.61-3.08
		c-1.72,0-3.21,0.39-4.45,1.17c-0.08,0.03-0.94,0.75-2.59,2.15c-0.92,0.78-1.86,1.17-2.83,1.17c-1.16,0-2.15-0.33-2.95-1
		c-0.8-0.67-1.2-1.48-1.2-2.42c0-0.98,0.38-1.99,1.14-3.03c1.2-1.7,3.09-3.05,5.65-4.06c2.41-0.98,4.87-1.47,7.4-1.47
		c3.57,0,6.66,0.91,9.26,2.74C91.7,15.22,93,17.56,93,20.43C93,23.34,91.32,25.78,87.95,27.77"/>
	<path class="st1" d="M25.73,0.61c16.02-1.86,30.52,9.6,32.38,25.59c1.38,11.89-4.62,22.94-14.38,28.59
		c-0.34-0.8-1.7-4.04-2.28-5.41c-1.12-2.63-2.66-6.48-2.88-8.12c-0.35-2.62,5-9.4,5-9.4S50.9,22,50.81,16.72
		c-0.09-5.27-2.19-5.64-2.62-5.5c-0.43,0.14-0.38,1.78-0.4,2.16c-0.02,0.39-0.61,1.94-2.47,2.22c-1.86,0.28-2.96,1.31-2.96,1.31
		s-6.34,6.05-8.75,7.86c-2.41,1.81-2.57,3.54-2.57,3.54s-0.81-0.48-2.03-0.79c-1.94-0.5-4.41-0.43-6.91-0.63
		c-2.27-0.17-4.55-0.54-6.33-0.47c-2.25,0.08-3.97,1.54-5.35,1.74c-1.38,0.2-3.1-0.63-3.55-1.43c-0.45-0.8-2.88,0.11,0.5,5.03
		C10.74,36.69,25.65,40,25.65,40s5.57,0.98,7.53,3.09c2.48,2.68,2.8,10.67,2.95,14.75c-1.2,0.3-2.42,0.52-3.68,0.66
		C16.44,60.36,1.94,48.9,0.08,32.91C-1.78,16.93,9.7,2.46,25.73,0.61"/>
	<path class="st0" d="M205.04,58.35c0-1.11-0.13-1.97-0.39-2.57c-0.26-0.61-0.69-0.91-1.27-0.91c-0.58,0-0.99,0.3-1.25,0.91
		c-0.26,0.61-0.39,1.46-0.39,2.57c0,1.11,0.13,1.97,0.38,2.58c0.25,0.61,0.67,0.92,1.26,0.92c0.6,0,1.02-0.31,1.28-0.92
		C204.91,60.32,205.04,59.46,205.04,58.35 M207.19,58.35c0,1.77-0.33,3.07-0.99,3.91c-0.66,0.84-1.6,1.26-2.82,1.26
		c-1.22,0-2.16-0.42-2.82-1.26c-0.66-0.84-0.98-2.15-0.98-3.91s0.33-3.07,0.98-3.91c0.66-0.84,1.59-1.26,2.82-1.26
		c1.22,0,2.16,0.42,2.82,1.26C206.85,55.28,207.19,56.58,207.19,58.35z M194.94,57.62c0.27,0,0.52-0.02,0.76-0.05
		c0.17-0.17,0.31-0.38,0.42-0.64c0.11-0.25,0.16-0.53,0.16-0.85c0-0.79-0.38-1.21-1.14-1.27h-0.85v2.83
		c0.09-0.01,0.19-0.02,0.3-0.02C194.69,57.62,194.81,57.62,194.94,57.62z M194.89,58.95c-0.11,0-0.22,0-0.33,0.01
		c-0.11,0-0.2,0.01-0.28,0.02v2.89c0.08,0,0.16,0,0.24,0.01c0.08,0.01,0.16,0.01,0.24,0.01c0.6,0,1.04-0.11,1.33-0.33
		c0.29-0.22,0.44-0.63,0.44-1.23c0-0.46-0.14-0.81-0.42-1.04C195.84,59.07,195.43,58.95,194.89,58.95z M192.27,53.37
		c0.25,0,0.62-0.01,1.09-0.05c0.47-0.03,0.96-0.05,1.45-0.05c1.2,0,2.08,0.19,2.63,0.57c0.55,0.38,0.83,1.04,0.83,1.99
		c0,0.58-0.12,1.05-0.36,1.44c-0.24,0.38-0.51,0.67-0.82,0.86c0.21,0.07,0.41,0.16,0.6,0.28c0.19,0.12,0.35,0.27,0.48,0.45
		c0.14,0.18,0.24,0.4,0.33,0.67c0.08,0.26,0.12,0.57,0.12,0.92c0,1.01-0.3,1.76-0.89,2.25c-0.6,0.49-1.54,0.73-2.83,0.73
		c-0.53,0-1.04-0.02-1.52-0.05c-0.48-0.04-0.85-0.05-1.11-0.05V53.37z M191.09,55.08h-2.04v8.25h-2.1v-8.25h-2.06v-1.71h6.22
		L191.09,55.08z M180.13,58.36c0,0.6,0.04,1.11,0.11,1.55c0.07,0.44,0.19,0.8,0.36,1.09c0.17,0.29,0.4,0.5,0.68,0.65
		c0.28,0.15,0.64,0.22,1.07,0.22c0.36,0,0.7-0.05,1-0.14c0.3-0.1,0.52-0.17,0.67-0.23c0.05,0.26,0.1,0.53,0.14,0.79
		c0.05,0.27,0.09,0.53,0.14,0.79c-0.06,0.02-0.16,0.06-0.29,0.11c-0.13,0.05-0.3,0.1-0.49,0.16c-0.2,0.06-0.42,0.1-0.68,0.14
		c-0.26,0.04-0.54,0.06-0.86,0.06c-1.35,0-2.37-0.43-3.04-1.28c-0.68-0.85-1.01-2.16-1.01-3.91c0-1.76,0.34-3.06,1.01-3.91
		c0.68-0.85,1.69-1.28,3.04-1.28c0.31,0,0.6,0.02,0.86,0.06c0.26,0.04,0.48,0.09,0.68,0.14c0.2,0.06,0.36,0.11,0.49,0.16
		c0.13,0.05,0.23,0.09,0.29,0.11c-0.05,0.26-0.1,0.53-0.14,0.79c-0.05,0.27-0.09,0.53-0.14,0.79c-0.14-0.06-0.36-0.14-0.67-0.23
		c-0.3-0.1-0.64-0.14-1-0.14c-0.43,0-0.79,0.07-1.07,0.22c-0.28,0.15-0.51,0.36-0.68,0.65c-0.17,0.29-0.29,0.65-0.36,1.1
		C180.17,57.26,180.13,57.78,180.13,58.36z M177.2,55.08h-2.04v8.25h-2.1v-8.25h-2.06v-1.71h6.22L177.2,55.08z M169.81,63.33h-2.09
		v-4.12h-2.71v4.12h-2.1v-9.96h2.1v4.16h2.71v-4.16h2.09V63.33z M156.1,63.33v-9.96h5.39v1.71h-3.27v2.3h2.48v1.6h-2.48v2.63h3.27
		v1.71H156.1z M152.22,55.18v8.14h-2.1v-9.96h4.86v1.82H152.22z M144.95,55.29c-0.05,0.27-0.12,0.6-0.2,0.98
		c-0.09,0.38-0.18,0.78-0.27,1.21c-0.1,0.43-0.2,0.87-0.3,1.33c-0.11,0.46-0.21,0.91-0.31,1.34h2.15c-0.09-0.43-0.19-0.88-0.3-1.34
		c-0.11-0.46-0.21-0.9-0.3-1.33c-0.1-0.43-0.18-0.83-0.27-1.21C145.07,55.89,145,55.56,144.95,55.29z M143.74,53.37
		c0.07,0,0.14,0,0.2,0s0.13,0.01,0.2,0.02v-0.02h2.13l2.72,9.96h-2.23l-0.45-1.73h-2.79l-0.45,1.73h-2.12L143.74,53.37z
		 M131.75,63.33v-9.96h5.39v1.71h-3.27v2.3h2.48v1.6h-2.48v2.63h3.27v1.71H131.75z M128.15,58.35c0-1.11-0.13-1.97-0.39-2.57
		c-0.26-0.61-0.69-0.91-1.27-0.91c-0.58,0-0.99,0.3-1.25,0.91c-0.26,0.61-0.39,1.46-0.39,2.57c0,1.11,0.13,1.97,0.38,2.58
		c0.25,0.61,0.67,0.92,1.26,0.92c0.6,0,1.02-0.31,1.28-0.92C128.02,60.32,128.15,59.46,128.15,58.35z M130.3,58.35
		c0,1.77-0.33,3.07-0.99,3.91c-0.66,0.84-1.6,1.26-2.82,1.26c-1.22,0-2.16-0.42-2.82-1.26c-0.66-0.84-0.98-2.15-0.98-3.91
		s0.33-3.07,0.98-3.91c0.66-0.84,1.59-1.26,2.82-1.26c1.22,0,2.16,0.42,2.82,1.26C129.97,55.28,130.3,56.58,130.3,58.35z
		 M121.23,63.33h-2.09v-4.12h-2.71v4.12h-2.1v-9.96h2.1v4.16h2.71v-4.16h2.09V63.33z M113.01,63.33h-2.12
		c-0.01-0.17-0.03-0.42-0.05-0.73c-0.03-0.32-0.05-0.68-0.08-1.07c-0.03-0.4-0.06-0.82-0.09-1.26c-0.04-0.44-0.07-0.87-0.09-1.28
		c-0.03-0.41-0.05-0.79-0.08-1.14c-0.03-0.35-0.04-0.64-0.05-0.85c-0.05,0.16-0.12,0.39-0.2,0.7c-0.09,0.3-0.18,0.64-0.29,1
		c-0.11,0.36-0.22,0.74-0.33,1.14c-0.12,0.4-0.23,0.77-0.33,1.12c-0.11,0.35-0.2,0.66-0.28,0.94c-0.08,0.28-0.14,0.48-0.18,0.6
		h-1.44c-0.04-0.12-0.1-0.32-0.19-0.59c-0.09-0.27-0.18-0.58-0.29-0.93c-0.11-0.35-0.22-0.72-0.33-1.11
		c-0.12-0.39-0.23-0.77-0.34-1.14c-0.11-0.36-0.21-0.7-0.3-1.01c-0.09-0.31-0.15-0.55-0.19-0.72l-0.42,6.34h-2.04l0.95-9.96h2.04
		c0.05,0.14,0.12,0.37,0.22,0.67s0.2,0.66,0.33,1.06c0.12,0.4,0.25,0.82,0.39,1.27c0.14,0.45,0.26,0.88,0.39,1.3
		c0.12,0.42,0.23,0.8,0.33,1.16c0.1,0.35,0.17,0.63,0.22,0.82c0.05-0.19,0.13-0.46,0.23-0.81c0.1-0.35,0.21-0.73,0.33-1.15
		c0.12-0.42,0.25-0.85,0.39-1.3c0.14-0.45,0.27-0.88,0.39-1.28c0.13-0.4,0.24-0.76,0.33-1.07c0.1-0.31,0.17-0.53,0.22-0.67h2.06
		L113.01,63.33z M98.69,55.29c-0.05,0.27-0.12,0.6-0.2,0.98c-0.09,0.38-0.18,0.78-0.27,1.21c-0.1,0.43-0.2,0.87-0.3,1.33
		c-0.11,0.46-0.21,0.91-0.31,1.34h2.15c-0.09-0.43-0.19-0.88-0.3-1.34c-0.11-0.46-0.21-0.9-0.3-1.33c-0.1-0.43-0.18-0.83-0.27-1.21
		C98.81,55.89,98.74,55.56,98.69,55.29z M97.48,53.37c0.07,0,0.14,0,0.2,0c0.07,0,0.13,0.01,0.2,0.02v-0.02h2.13l2.72,9.96h-2.23
		l-0.45-1.73h-2.79l-0.45,1.73h-2.12L97.48,53.37z M93.59,53.37v9.96H91.5v-8.19h-1.82c-0.05,1.07-0.11,2.07-0.19,3
		c-0.08,0.93-0.16,1.81-0.25,2.63c-0.06,0.51-0.17,0.94-0.32,1.29c-0.15,0.34-0.34,0.62-0.57,0.82c-0.23,0.2-0.49,0.34-0.8,0.42
		c-0.31,0.08-0.65,0.12-1.02,0.12c-0.07,0-0.14,0-0.2-0.01c-0.06-0.01-0.12-0.01-0.18-0.02l0.03-1.54c0.29-0.02,0.53-0.11,0.7-0.27
		c0.18-0.16,0.3-0.43,0.37-0.82c0.13-0.94,0.24-2.01,0.32-3.2c0.08-1.2,0.15-2.59,0.21-4.19H93.59z M78.64,53.37h2.1v4.36l2.44-4.36
		h2.35l-2.82,4.51c0.51,0.92,1.03,1.83,1.56,2.72c0.52,0.9,1.04,1.81,1.56,2.72h-2.5l-2.59-4.86v4.86h-2.1V53.37z M71.82,63.33
		v-9.96h5.39v1.71h-3.27v2.3h2.48v1.6h-2.48v2.63h3.27v1.71H71.82z M67,54.88c-0.1,0-0.2,0-0.31,0c-0.11,0-0.21,0-0.33,0.02v3.6
		h0.56c0.43,0,0.79-0.13,1.06-0.39c0.27-0.26,0.41-0.74,0.41-1.42c0-0.62-0.12-1.07-0.36-1.36C67.78,55.03,67.44,54.88,67,54.88z
		 M64.32,53.37c0.13,0,0.3,0,0.49-0.01c0.2-0.01,0.41-0.02,0.64-0.03c0.23-0.01,0.47-0.02,0.73-0.03c0.25-0.01,0.5-0.02,0.74-0.02
		c1.29,0,2.21,0.29,2.76,0.86c0.55,0.58,0.82,1.42,0.82,2.54c0,0.63-0.09,1.16-0.26,1.59c-0.18,0.43-0.42,0.78-0.73,1.05
		c-0.31,0.27-0.68,0.46-1.09,0.58c-0.41,0.12-0.86,0.17-1.35,0.17c-0.13,0-0.25,0-0.37-0.01c-0.12-0.01-0.23-0.01-0.34-0.02v3.28
		h-2.04V53.37z"/>
</g>
</svg>
