<?xml version="1.0" encoding="utf-8"?>
<!-- Generator: Adobe Illustrator 23.0.5, SVG Export Plug-In . SVG Version: 6.00 Build 0)  -->
<svg version="1.1" id="Слой_1" xmlns="http://www.w3.org/2000/svg" xmlns:xlink="http://www.w3.org/1999/xlink" x="0px" y="0px"
	 viewBox="0 0 210 60" style="enable-background:new 0 0 210 60;" xml:space="preserve">
<style type="text/css">
	.st0{fill:#185690;}
	.st1{fill-rule:evenodd;clip-rule:evenodd;fill:#185690;}
</style>
<g>
	<path class="st0" d="M190.5,34.6c0.7-2.7,1.4-6.5,2-8.7l2.1,8.7H190.5z M205,41.8c0,0-4.9-13.9-6.4-17.4c-1.4-3.3-4-4.7-6.6-4.7
		c-2,0-4.6,0.9-5.1,2.1c-0.3,0.7,1.6,0.7,0.2,3.9c0,0-6.1,16.1-6.1,16.1c-0.1,0.2,0.1,0.2,0.1,0.2h7.4c0,0,0.2,0,0.2-0.2
		c0,0,0.3-1.3,0.8-3.2h6.2l0.9,3.2c0,0.2,0.2,0.2,0.2,0.2h8C204.9,41.9,205.1,41.9,205,41.8z M180.3,20.5c-0.1-0.2-0.3-0.2-0.3-0.2
		s-0.9,0-2.3,0c-9.8-0.1-13.3-1.4-16.7,0.1c-3.8,1.7-2.2,5.1-2.1,5.1c0,0,0.1,0.2,0.2,0.2c2-0.3,4.1-0.5,6.3-0.4l-0.1,12.2
		c0,3.5,2.5,4.9,5.3,4.9c2.1,0,4.4-1.3,4.8-2.3c0.3-0.8-2.1,0.2-2.3-4.3L173,25.8c0,0,3.1,0.4,4.7-0.1
		C181.8,24.7,180.3,20.5,180.3,20.5z M154.7,20.7c0-0.2-0.2-0.2-0.2-0.2h-6.5c0,0-0.1,0-0.2,0.2l-7.1,12.5l0.3-2.5v-6.1
		c0-3.4-2.5-4.8-5.2-4.8c-2.1,0-4.4,1.2-4.8,2.2c-0.3,0.8,1.8,0,2.2,3.5c0,0,0,1.9,0,16.3c0,0.2,0.1,0.2,0.1,0.2h7.2
		c0,0,0.2,0,0.3-0.2c1.8-2.6,5-8.3,6.9-11.4l-0.3,2.9l-0.2,8.5c-0.1,0.2,0.1,0.2,0.1,0.2h7.3c0,0,0.2,0,0.2-0.2L154.7,20.7z
		 M128.4,38.8c-2.8-0.7-5-5-5.7-6.4c-1.1-2-2-3.6-4.4-3.5c0-2.2,0.7-4.2,2.1-4.2c1.2,0,1,0.9,1,1.5c0,0.4,6.1,1.7,6.8-2.6
		c0.4-2.5-2.2-4.1-5.3-3.8c-5.2,0.5-7.8,4.8-7.7,9.4c-0.2,0.1-0.8,0.1-1.1,0.2l0.2-4.8c0-3.4-2.5-4.8-5.2-4.8
		c-2.1,0-4.4,1.2-4.8,2.2c-0.3,0.8,1.8,0,2.2,3.5c0,0,0,1.9,0,16.3c0,0.2,0.1,0.2,0.1,0.2h7.6c0,0,0.2,0,0.2-0.2l-0.2-9.1
		c0.3-0.2,1-0.2,1.3-0.1c0.7,4.6,2.4,10.6,9.2,10C128,42.2,129,39,128.4,38.8z"/>
	<path class="st0" d="M92.6,26.4c4.6,1.9,6.9,4.8,6.9,8.6c0,3.2-1.5,5.9-4.5,8c-2.8,2-6.3,2.9-10.3,2.9c-3.6,0-6.8-0.8-9.6-2.4
		c-3.2-1.8-4.8-4.1-4.8-6.9c0-0.9,0.4-1.7,1.2-2.5c0.8-0.8,1.8-1.1,2.9-1.1c1.2,0,2.3,0.5,3.3,1.5c0.9,0.9,1.8,1.9,2.7,2.8
		c1.2,1,2.7,1.5,4.4,1.5c1.5,0,2.7-0.4,3.6-1.3c0.9-0.8,1.4-1.9,1.4-3.1c0-1.4-0.6-2.4-1.9-3c-0.8-0.4-2.1-0.7-4.1-1
		C81.3,30.1,80,29,80,27.1c0-1,0.3-1.8,1-2.3c0.6-0.4,1.5-0.8,2.9-1c2.9-0.6,4.4-1.7,4.4-3.5c0-1.9-1.1-2.9-3.4-2.9
		c-1.6,0-3,0.4-4.2,1.1c-0.1,0-0.9,0.7-2.4,2c-0.9,0.7-1.8,1.1-2.7,1.1c-1.1,0-2-0.3-2.8-0.9c-0.8-0.6-1.1-1.4-1.1-2.3
		c0-0.9,0.4-1.9,1.1-2.9c1.1-1.6,2.9-2.9,5.3-3.8c2.3-0.9,4.6-1.4,7-1.4c3.4,0,6.3,0.9,8.7,2.6c2.5,1.7,3.7,3.9,3.7,6.7
		C97.4,22.3,95.8,24.6,92.6,26.4"/>
	<path class="st1" d="M34,0.8c15.1-1.8,28.8,9,30.5,24.1c1.3,11.2-4.4,21.6-13.6,26.9c-0.3-0.8-1.6-3.8-2.1-5.1
		c-1.1-2.5-2.5-6.1-2.7-7.7c-0.3-2.5,4.7-8.9,4.7-8.9S57.7,21,57.6,16c-0.1-5-2.1-5.3-2.5-5.2s-0.4,1.7-0.4,2c0,0.4-0.6,1.8-2.3,2.1
		c-1.8,0.3-2.8,1.2-2.8,1.2s-6,5.7-8.2,7.4c-2.3,1.7-2.4,3.3-2.4,3.3s-0.8-0.5-1.9-0.7c-1.8-0.5-4.2-0.4-6.5-0.6
		c-2.1-0.2-4.3-0.5-6-0.4c-2.1,0.1-3.7,1.5-5,1.6c-1.3,0.2-2.9-0.6-3.3-1.3c-0.4-0.8-2.7,0.1,0.5,4.7c3.2,4.6,17.2,7.8,17.2,7.8
		s5.2,0.9,7.1,2.9c2.3,2.5,2.6,10.1,2.8,13.9c-1.1,0.3-2.3,0.5-3.5,0.6c-15.1,1.8-28.8-9-30.5-24.1C8.1,16.2,18.9,2.6,34,0.8"/>
	<path class="st0" d="M203,55.2c0-1-0.1-1.9-0.4-2.4c-0.2-0.6-0.7-0.9-1.2-0.9c-0.5,0-0.9,0.3-1.2,0.9c-0.2,0.6-0.4,1.4-0.4,2.4
		c0,1,0.1,1.9,0.4,2.4c0.2,0.6,0.6,0.9,1.2,0.9c0.6,0,1-0.3,1.2-0.9C202.9,57.1,203,56.3,203,55.2 M205,55.2c0,1.7-0.3,2.9-0.9,3.7
		s-1.5,1.2-2.7,1.2c-1.1,0-2-0.4-2.7-1.2s-0.9-2-0.9-3.7c0-1.7,0.3-2.9,0.9-3.7c0.6-0.8,1.5-1.2,2.7-1.2c1.1,0,2,0.4,2.7,1.2
		C204.7,52.4,205,53.6,205,55.2z M193.5,54.6c0.3,0,0.5,0,0.7,0c0.2-0.2,0.3-0.4,0.4-0.6c0.1-0.2,0.2-0.5,0.2-0.8
		c0-0.7-0.4-1.1-1.1-1.2h-0.8v2.7c0.1,0,0.2,0,0.3,0C193.2,54.6,193.3,54.6,193.5,54.6z M193.4,55.8c-0.1,0-0.2,0-0.3,0
		c-0.1,0-0.2,0-0.3,0v2.7c0.1,0,0.2,0,0.2,0c0.1,0,0.2,0,0.2,0c0.6,0,1-0.1,1.3-0.3c0.3-0.2,0.4-0.6,0.4-1.2c0-0.4-0.1-0.8-0.4-1
		C194.3,55.9,193.9,55.8,193.4,55.8z M190.9,50.6c0.2,0,0.6,0,1,0c0.4,0,0.9,0,1.4,0c1.1,0,2,0.2,2.5,0.5c0.5,0.4,0.8,1,0.8,1.9
		c0,0.5-0.1,1-0.3,1.4c-0.2,0.4-0.5,0.6-0.8,0.8c0.2,0.1,0.4,0.2,0.6,0.3c0.2,0.1,0.3,0.3,0.5,0.4c0.1,0.2,0.2,0.4,0.3,0.6
		c0.1,0.2,0.1,0.5,0.1,0.9c0,1-0.3,1.7-0.8,2.1c-0.6,0.5-1.5,0.7-2.7,0.7c-0.5,0-1,0-1.4,0c-0.5,0-0.8,0-1,0L190.9,50.6L190.9,50.6z
		 M189.8,52.2h-1.9v7.8h-2v-7.8H184v-1.6h5.9L189.8,52.2z M179.5,55.3c0,0.6,0,1,0.1,1.5s0.2,0.8,0.3,1c0.2,0.3,0.4,0.5,0.6,0.6
		c0.3,0.1,0.6,0.2,1,0.2c0.3,0,0.7,0,0.9-0.1c0.3-0.1,0.5-0.2,0.6-0.2c0,0.2,0.1,0.5,0.1,0.7c0,0.3,0.1,0.5,0.1,0.7
		c-0.1,0-0.2,0.1-0.3,0.1c-0.1,0-0.3,0.1-0.5,0.2c-0.2,0.1-0.4,0.1-0.6,0.1c-0.2,0-0.5,0.1-0.8,0.1c-1.3,0-2.2-0.4-2.9-1.2
		c-0.6-0.8-1-2-1-3.7c0-1.7,0.3-2.9,1-3.7c0.6-0.8,1.6-1.2,2.9-1.2c0.3,0,0.6,0,0.8,0.1c0.2,0,0.5,0.1,0.6,0.1
		c0.2,0.1,0.3,0.1,0.5,0.2c0.1,0,0.2,0.1,0.3,0.1c0,0.2-0.1,0.5-0.1,0.7c0,0.3-0.1,0.5-0.1,0.7c-0.1-0.1-0.3-0.1-0.6-0.2
		c-0.3-0.1-0.6-0.1-0.9-0.1c-0.4,0-0.7,0.1-1,0.2c-0.3,0.1-0.5,0.3-0.6,0.6c-0.2,0.3-0.3,0.6-0.3,1
		C179.5,54.2,179.5,54.7,179.5,55.3z M176.7,52.2h-1.9v7.8h-2v-7.8h-1.9v-1.6h5.9L176.7,52.2z M169.8,59.9h-2v-3.9h-2.6v3.9h-2v-9.4
		h2v3.9h2.6v-3.9h2V59.9z M156.9,59.9v-9.4h5.1v1.6h-3.1v2.2h2.3v1.5h-2.3v2.5h3.1v1.6L156.9,59.9L156.9,59.9z M153.2,52.3v7.7h-2
		v-9.4h4.6v1.7H153.2z M146.4,52.4c0,0.3-0.1,0.6-0.2,0.9c-0.1,0.4-0.2,0.7-0.3,1.1c-0.1,0.4-0.2,0.8-0.3,1.3
		c-0.1,0.4-0.2,0.9-0.3,1.3h2c-0.1-0.4-0.2-0.8-0.3-1.3s-0.2-0.8-0.3-1.3c-0.1-0.4-0.2-0.8-0.3-1.1
		C146.5,52.9,146.4,52.6,146.4,52.4z M145.2,50.6c0.1,0,0.1,0,0.2,0c0.1,0,0.1,0,0.2,0v0h2l2.6,9.4h-2.1l-0.4-1.6H145l-0.4,1.6h-2
		L145.2,50.6z M133.9,59.9v-9.4h5.1v1.6h-3.1v2.2h2.3v1.5h-2.3v2.5h3.1v1.6L133.9,59.9L133.9,59.9z M130.5,55.2c0-1-0.1-1.9-0.4-2.4
		c-0.2-0.6-0.7-0.9-1.2-0.9c-0.5,0-0.9,0.3-1.2,0.9c-0.2,0.6-0.4,1.4-0.4,2.4c0,1,0.1,1.9,0.4,2.4c0.2,0.6,0.6,0.9,1.2,0.9
		c0.6,0,1-0.3,1.2-0.9C130.4,57.1,130.5,56.3,130.5,55.2z M132.5,55.2c0,1.7-0.3,2.9-0.9,3.7s-1.5,1.2-2.7,1.2c-1.1,0-2-0.4-2.7-1.2
		c-0.6-0.8-0.9-2-0.9-3.7c0-1.7,0.3-2.9,0.9-3.7c0.6-0.8,1.5-1.2,2.7-1.2c1.1,0,2,0.4,2.7,1.2S132.5,53.6,132.5,55.2z M124,59.9h-2
		v-3.9h-2.6v3.9h-2v-9.4h2v3.9h2.6v-3.9h2V59.9z M116.3,59.9h-2c0-0.2,0-0.4,0-0.7c0-0.3,0-0.6-0.1-1c0-0.4-0.1-0.8-0.1-1.2
		c0-0.4-0.1-0.8-0.1-1.2c0-0.4,0-0.7-0.1-1.1c0-0.3,0-0.6,0-0.8c0,0.2-0.1,0.4-0.2,0.7c-0.1,0.3-0.2,0.6-0.3,0.9s-0.2,0.7-0.3,1.1
		c-0.1,0.4-0.2,0.7-0.3,1.1c-0.1,0.3-0.2,0.6-0.3,0.9c-0.1,0.3-0.1,0.5-0.2,0.6H111c0-0.1-0.1-0.3-0.2-0.6c-0.1-0.3-0.2-0.5-0.3-0.9
		c-0.1-0.3-0.2-0.7-0.3-1c-0.1-0.4-0.2-0.7-0.3-1.1c-0.1-0.3-0.2-0.7-0.3-1c-0.1-0.3-0.1-0.5-0.2-0.7l-0.4,6h-1.9l0.9-9.4h1.9
		c0,0.1,0.1,0.3,0.2,0.6c0.1,0.3,0.2,0.6,0.3,1c0.1,0.4,0.2,0.8,0.4,1.2s0.2,0.8,0.4,1.2c0.1,0.4,0.2,0.8,0.3,1.1
		c0.1,0.3,0.2,0.6,0.2,0.8c0-0.2,0.1-0.4,0.2-0.8s0.2-0.7,0.3-1.1s0.2-0.8,0.4-1.2s0.3-0.8,0.4-1.2c0.1-0.4,0.2-0.7,0.3-1
		c0.1-0.3,0.2-0.5,0.2-0.6h1.9L116.3,59.9z M102.8,52.4c0,0.3-0.1,0.6-0.2,0.9c-0.1,0.4-0.2,0.7-0.3,1.1c-0.1,0.4-0.2,0.8-0.3,1.3
		c-0.1,0.4-0.2,0.9-0.3,1.3h2c-0.1-0.4-0.2-0.8-0.3-1.3c-0.1-0.4-0.2-0.8-0.3-1.3c-0.1-0.4-0.2-0.8-0.3-1.1
		C102.9,52.9,102.8,52.6,102.8,52.4z M101.6,50.6c0.1,0,0.1,0,0.2,0c0.1,0,0.1,0,0.2,0v0h2l2.6,9.4h-2.1l-0.4-1.6h-2.6l-0.4,1.6h-2
		L101.6,50.6z M98,50.6v9.4h-2v-7.7h-1.7c0,1-0.1,2-0.2,2.8c-0.1,0.9-0.2,1.7-0.2,2.5c-0.1,0.5-0.2,0.9-0.3,1.2
		c-0.1,0.3-0.3,0.6-0.5,0.8c-0.2,0.2-0.5,0.3-0.8,0.4C92,60,91.6,60,91.3,60c-0.1,0-0.1,0-0.2,0c-0.1,0-0.1,0-0.2,0l0-1.5
		c0.3,0,0.5-0.1,0.7-0.3c0.2-0.2,0.3-0.4,0.3-0.8c0.1-0.9,0.2-1.9,0.3-3c0.1-1.1,0.1-2.4,0.2-3.9H98z M83.9,50.6h2v4.1l2.3-4.1h2.2
		l-2.7,4.2c0.5,0.9,1,1.7,1.5,2.6c0.5,0.8,1,1.7,1.5,2.6h-2.4l-2.4-4.6v4.6h-2V50.6z M77.4,59.9v-9.4h5.1v1.6h-3.1v2.2h2.3v1.5h-2.3
		v2.5h3.1v1.6L77.4,59.9L77.4,59.9z M72.9,52c-0.1,0-0.2,0-0.3,0c-0.1,0-0.2,0-0.3,0v3.4h0.5c0.4,0,0.7-0.1,1-0.4
		c0.3-0.2,0.4-0.7,0.4-1.3c0-0.6-0.1-1-0.3-1.3C73.6,52.1,73.3,52,72.9,52z M70.4,50.6c0.1,0,0.3,0,0.5,0c0.2,0,0.4,0,0.6,0
		c0.2,0,0.4,0,0.7,0c0.2,0,0.5,0,0.7,0c1.2,0,2.1,0.3,2.6,0.8c0.5,0.5,0.8,1.3,0.8,2.4c0,0.6-0.1,1.1-0.2,1.5
		c-0.2,0.4-0.4,0.7-0.7,1c-0.3,0.3-0.6,0.4-1,0.5c-0.4,0.1-0.8,0.2-1.3,0.2c-0.1,0-0.2,0-0.3,0s-0.2,0-0.3,0v3.1h-1.9V50.6z"/>
</g>
</svg>
