<svg id="Слой_1" xmlns="http://www.w3.org/2000/svg" xmlns:xlink="http://www.w3.org/1999/xlink" viewBox="0 0 210 60" style="enable-background:new 0 0 210 60"><style>.st0{fill:#185690}.st1{fill-rule:evenodd;clip-rule:evenodd;fill:#185690}</style><g><path class="st0" d="M190.5 34.6c.7-2.7 1.4-6.5 2-8.7l2.1 8.7H190.5zM205 41.8c0 0-4.9-13.9-6.4-17.4-1.4-3.3-4-4.7-6.6-4.7-2 0-4.6.9-5.1 2.1-.3.7 1.6.7.2 3.9.0.0-6.1 16.1-6.1 16.1-.1.2.1.2.1.2h7.4c0 0 .2.0.2-.2.0.0.3-1.3.8-3.2h6.2l.9 3.2c0 .2.2.2.2.2h8C204.9 41.9 205.1 41.9 205 41.8zM180.3 20.5c-.1-.2-.3-.2-.3-.2s-.9.0-2.3.0c-9.8-.1-13.3-1.4-16.7.1-3.8 1.7-2.2 5.1-2.1 5.1.0.0.1.2.2.2 2-.3 4.1-.5 6.3-.4l-.1 12.2c0 3.5 2.5 4.9 5.3 4.9 2.1.0 4.4-1.3 4.8-2.3.3-.8-2.1.2-2.3-4.3L173 25.8c0 0 3.1.4 4.7-.1C181.8 24.7 180.3 20.5 180.3 20.5zM154.7 20.7c0-.2-.2-.2-.2-.2H148c0 0-.1.0-.2.2l-7.1 12.5.3-2.5v-6.1c0-3.4-2.5-4.8-5.2-4.8-2.1.0-4.4 1.2-4.8 2.2-.3.8 1.8.0 2.2 3.5.0.0.0 1.9.0 16.3.0.2.1.2.1.2h7.2c0 0 .2.0.3-.2 1.8-2.6 5-8.3 6.9-11.4l-.3 2.9-.2 8.5c-.1.2.1.2.1.2h7.3c0 0 .2.0.2-.2L154.7 20.7zM128.4 38.8c-2.8-.7-5-5-5.7-6.4-1.1-2-2-3.6-4.4-3.5.0-2.2.7-4.2 2.1-4.2 1.2.0 1 .9 1 1.5.0.4 6.1 1.7 6.8-2.6.4-2.5-2.2-4.1-5.3-3.8-5.2.5-7.8 4.8-7.7 9.4-.2.1-.8.1-1.1.2l.2-4.8c0-3.4-2.5-4.8-5.2-4.8-2.1.0-4.4 1.2-4.8 2.2-.3.8 1.8.0 2.2 3.5.0.0.0 1.9.0 16.3.0.2.1.2.1.2h7.6c0 0 .2.0.2-.2l-.2-9.1c.3-.2 1-.2 1.3-.1.7 4.6 2.4 10.6 9.2 10C128 42.2 129 39 128.4 38.8z"/><path class="st0" d="M92.6 26.4c4.6 1.9 6.9 4.8 6.9 8.6.0 3.2-1.5 5.9-4.5 8-2.8 2-6.3 2.9-10.3 2.9-3.6.0-6.8-.8-9.6-2.4-3.2-1.8-4.8-4.1-4.8-6.9.0-.9.4-1.7 1.2-2.5.8-.8 1.8-1.1 2.9-1.1 1.2.0 2.3.5 3.3 1.5.9.9 1.8 1.9 2.7 2.8 1.2 1 2.7 1.5 4.4 1.5 1.5.0 2.7-.4 3.6-1.3.9-.8 1.4-1.9 1.4-3.1.0-1.4-.6-2.4-1.9-3-.8-.4-2.1-.7-4.1-1C81.3 30.1 80 29 80 27.1c0-1 .3-1.8 1-2.3.6-.4 1.5-.8 2.9-1 2.9-.6 4.4-1.7 4.4-3.5.0-1.9-1.1-2.9-3.4-2.9-1.6.0-3 .4-4.2 1.1-.1.0-.9.7-2.4 2-.9.7-1.8 1.1-2.7 1.1-1.1.0-2-.3-2.8-.9-.8-.6-1.1-1.4-1.1-2.3.0-.9.4-1.9 1.1-2.9 1.1-1.6 2.9-2.9 5.3-3.8 2.3-.9 4.6-1.4 7-1.4 3.4.0 6.3.9 8.7 2.6 2.5 1.7 3.7 3.9 3.7 6.7C97.4 22.3 95.8 24.6 92.6 26.4"/><path class="st1" d="M34 .8c15.1-1.8 28.8 9 30.5 24.1 1.3 11.2-4.4 21.6-13.6 26.9-.3-.8-1.6-3.8-2.1-5.1-1.1-2.5-2.5-6.1-2.7-7.7-.3-2.5 4.7-8.9 4.7-8.9S57.7 21 57.6 16c-.1-5-2.1-5.3-2.5-5.2s-.4 1.7-.4 2c0 .4-.6 1.8-2.3 2.1-1.8.3-2.8 1.2-2.8 1.2s-6 5.7-8.2 7.4c-2.3 1.7-2.4 3.3-2.4 3.3s-.8-.5-1.9-.7c-1.8-.5-4.2-.4-6.5-.6-2.1-.2-4.3-.5-6-.4-2.1.1-3.7 1.5-5 1.6-1.3.2-2.9-.6-3.3-1.3-.4-.8-2.7.1.5 4.7 3.2 4.6 17.2 7.8 17.2 7.8s5.2.9 7.1 2.9c2.3 2.5 2.6 10.1 2.8 13.9-1.1.3-2.3.5-3.5.6-15.1 1.8-28.8-9-30.5-24.1C8.1 16.2 18.9 2.6 34 .8"/><path class="st0" d="M203 55.2c0-1-.1-1.9-.4-2.4-.2-.6-.7-.9-1.2-.9-.5.0-.9.3-1.2.9-.2.6-.4 1.4-.4 2.4.0 1 .1 1.9.4 2.4.2.6.6.9 1.2.9.6.0 1-.3 1.2-.9C202.9 57.1 203 56.3 203 55.2m2 0c0 1.7-.3 2.9-.9 3.7s-1.5 1.2-2.7 1.2c-1.1.0-2-.4-2.7-1.2s-.9-2-.9-3.7c0-1.7.3-2.9.9-3.7.6-.8 1.5-1.2 2.7-1.2 1.1.0 2 .4 2.7 1.2C204.7 52.4 205 53.6 205 55.2zM193.5 54.6c.3.0.5.0.7.0.2-.2.3-.4.4-.6.1-.2.2-.5.2-.8.0-.7-.4-1.1-1.1-1.2h-.8v2.7c.1.0.2.0.3.0C193.2 54.6 193.3 54.6 193.5 54.6zM193.4 55.8c-.1.0-.2.0-.3.0-.1.0-.2.0-.3.0v2.7c.1.0.2.0.2.0.1.0.2.0.2.0.6.0 1-.1 1.3-.3.3-.2.4-.6.4-1.2.0-.4-.1-.8-.4-1C194.3 55.9 193.9 55.8 193.4 55.8zM190.9 50.6c.2.0.6.0 1 0 .4.0.9.0 1.4.0 1.1.0 2 .2 2.5.5.5.4.8 1 .8 1.9.0.5-.1 1-.3 1.4-.2.4-.5.6-.8.8.2.1.4.2.6.3.2.1.3.3.5.4.1.2.2.4.3.6.1.2.1.5.1.9.0 1-.3 1.7-.8 2.1-.6.5-1.5.7-2.7.7-.5.0-1 0-1.4.0-.5.0-.8.0-1 0L190.9 50.6v0zM189.8 52.2h-1.9V60h-2v-7.8H184v-1.6h5.9L189.8 52.2zM179.5 55.3c0 .6.0 1 .1 1.5s.2.8.3 1c.2.3.4.5.6.6.3.1.6.2 1 .2.3.0.7.0.9-.1.3-.1.5-.2.6-.2.0.2.1.5.1.7.0.3.1.5.1.7-.1.0-.2.1-.3.1-.1.0-.3.1-.5.2-.2.1-.4.1-.6.1-.2.0-.5.1-.8.1-1.3.0-2.2-.4-2.9-1.2-.6-.8-1-2-1-3.7.0-1.7.3-2.9 1-3.7.6-.8 1.6-1.2 2.9-1.2.3.0.6.0.8.1.2.0.5.1.6.1.2.1.3.1.5.2.1.0.2.1.3.1.0.2-.1.5-.1.7.0.3-.1.5-.1.7-.1-.1-.3-.1-.6-.2-.3-.1-.6-.1-.9-.1-.4.0-.7.1-1 .2-.3.1-.5.3-.6.6-.2.3-.3.6-.3 1C179.5 54.2 179.5 54.7 179.5 55.3zM176.7 52.2h-1.9V60h-2v-7.8h-1.9v-1.6h5.9L176.7 52.2zM169.8 59.9h-2V56h-2.6v3.9h-2v-9.4h2v3.9h2.6v-3.9h2V59.9zM156.9 59.9v-9.4h5.1v1.6h-3.1v2.2h2.3v1.5h-2.3v2.5h3.1v1.6L156.9 59.9v0zM153.2 52.3V60h-2v-9.4h4.6v1.7H153.2zM146.4 52.4c0 .3-.1.6-.2.9-.1.4-.2.7-.3 1.1-.1.4-.2.8-.3 1.3-.1.4-.2.9-.3 1.3h2c-.1-.4-.2-.8-.3-1.3s-.2-.8-.3-1.3c-.1-.4-.2-.8-.3-1.1C146.5 52.9 146.4 52.6 146.4 52.4zM145.2 50.6c.1.0.1.0.2.0.1.0.1.0.2.0v0h2l2.6 9.4h-2.1l-.4-1.6H145l-.4 1.6h-2L145.2 50.6zM133.9 59.9v-9.4h5.1v1.6h-3.1v2.2h2.3v1.5h-2.3v2.5h3.1v1.6L133.9 59.9v0zM130.5 55.2c0-1-.1-1.9-.4-2.4-.2-.6-.7-.9-1.2-.9-.5.0-.9.3-1.2.9-.2.6-.4 1.4-.4 2.4.0 1 .1 1.9.4 2.4.2.6.6.9 1.2.9.6.0 1-.3 1.2-.9C130.4 57.1 130.5 56.3 130.5 55.2zm2 0c0 1.7-.3 2.9-.9 3.7s-1.5 1.2-2.7 1.2c-1.1.0-2-.4-2.7-1.2-.6-.8-.9-2-.9-3.7.0-1.7.3-2.9.9-3.7.6-.8 1.5-1.2 2.7-1.2 1.1.0 2 .4 2.7 1.2S132.5 53.6 132.5 55.2zM124 59.9h-2V56h-2.6v3.9h-2v-9.4h2v3.9h2.6v-3.9h2V59.9zM116.3 59.9h-2c0-.2.0-.4.0-.7.0-.3.0-.6-.1-1 0-.4-.1-.8-.1-1.2.0-.4-.1-.8-.1-1.2.0-.4.0-.7-.1-1.1.0-.3.0-.6.0-.8.0.2-.1.4-.2.7-.1.3-.2.6-.3.9s-.2.7-.3 1.1c-.1.4-.2.7-.3 1.1-.1.3-.2.6-.3.9-.1.3-.1.5-.2.6H111c0-.1-.1-.3-.2-.6-.1-.3-.2-.5-.3-.9-.1-.3-.2-.7-.3-1-.1-.4-.2-.7-.3-1.1-.1-.3-.2-.7-.3-1-.1-.3-.1-.5-.2-.7l-.4 6h-1.9l.9-9.4h1.9c0 .1.1.3.2.6.1.3.2.6.3 1 .1.4.2.8.4 1.2s.2.8.4 1.2c.1.4.2.8.3 1.1.1.3.2.6.2.8.0-.2.1-.4.2-.8s.2-.7.3-1.1.2-.8.4-1.2.3-.8.4-1.2c.1-.4.2-.7.3-1 .1-.3.2-.5.2-.6h1.9L116.3 59.9zm-13.5-7.5c0 .3-.1.6-.2.9-.1.4-.2.7-.3 1.1-.1.4-.2.8-.3 1.3-.1.4-.2.9-.3 1.3h2c-.1-.4-.2-.8-.3-1.3-.1-.4-.2-.8-.3-1.3-.1-.4-.2-.8-.3-1.1C102.9 52.9 102.8 52.6 102.8 52.4zM101.6 50.6c.1.0.1.0.2.0.1.0.1.0.2.0v0h2l2.6 9.4h-2.1l-.4-1.6h-2.6l-.4 1.6h-2L101.6 50.6zM98 50.6V60h-2v-7.7h-1.7c0 1-.1 2-.2 2.8-.1.9-.2 1.7-.2 2.5-.1.5-.2.9-.3 1.2-.1.3-.3.6-.5.8-.2.2-.5.3-.8.4C92 60 91.6 60 91.3 60c-.1.0-.1.0-.2.0-.1.0-.1.0-.2.0v-1.5c.3.0.5-.1.7-.3.2-.2.3-.4.3-.8.1-.9.2-1.9.3-3 .1-1.1.1-2.4.2-3.9H98zM83.9 50.6h2v4.1l2.3-4.1h2.2l-2.7 4.2c.5.9 1 1.7 1.5 2.6.5.8 1 1.7 1.5 2.6h-2.4l-2.4-4.6v4.6h-2V50.6zM77.4 59.9v-9.4h5.1v1.6h-3.1v2.2h2.3v1.5h-2.3v2.5h3.1v1.6L77.4 59.9v0zM72.9 52c-.1.0-.2.0-.3.0-.1.0-.2.0-.3.0v3.4h.5c.4.0.7-.1 1-.4.3-.2.4-.7.4-1.3.0-.6-.1-1-.3-1.3C73.6 52.1 73.3 52 72.9 52zM70.4 50.6c.1.0.3.0.5.0.2.0.4.0.6.0.2.0.4.0.7.0.2.0.5.0.7.0 1.2.0 2.1.3 2.6.8.5.5.8 1.3.8 2.4.0.6-.1 1.1-.2 1.5-.2.4-.4.7-.7 1-.3.3-.6.4-1 .5-.4.1-.8.2-1.3.2-.1.0-.2.0-.3.0s-.2.0-.3.0v3.1h-1.9V50.6z"/></g></svg>