<svg id="Слой_1" xmlns="http://www.w3.org/2000/svg" xmlns:xlink="http://www.w3.org/1999/xlink" viewBox="0 0 39 61" style="enable-background:new 0 0 39 61"><style>.st0{fill:#fff}</style><g><g><path class="st0" d="M20.41 1c.92.4 1.69.94 1.91 1.99.09.43.08.87.12 1.37.25.0.48.0.7.0 4.72.0 9.45.0 14.17.0.47.0.9.04 1.17.47.28.43.18.84-.05 1.25-.79 1.44-1.57 2.89-2.37 4.32-.17.31-.18.53-.01.84.79 1.4 1.55 2.81 2.32 4.22.61 1.12.18 1.84-1.11 1.84-4.7.01-9.41.0-14.11.0-.23.0-.46.0-.72.0.0 1.72.0 3.37.0 5.08.23.0.44.0.65.0 3.19.0 6.39.01 9.58-.01.64.0 1.1.21 1.5.7 1.32 1.62 2.67 3.22 4.01 4.82.67.8.66 1.16-.02 1.98-1.34 1.61-2.69 3.2-4.01 4.82-.39.47-.85.68-1.45.68-3.17-.01-6.35-.01-9.52-.01-.23.0-.46.0-.77.0.0.27.0.49.0.72.0 7.65-.01 15.29.01 22.94.0.64-.14 1.14-.72 1.46-.23.0-.46.0-.7.0-.55-.37-.7-.89-.7-1.54.02-7.62.01-15.25.01-22.87.0-.22.0-.45.0-.68-.36.0-.64.0-.99.0.0.28.0.52.0.77.0 7.56.0 15.13.01 22.69.0.65-.1 1.21-.65 1.62-.27.0-.54.0-.81.0-.56-.4-.67-.97-.67-1.62.01-7.55.01-15.11.01-22.66.0-.25.0-.5.0-.84-.26.0-.48.0-.7.0-4.11.0-8.21.0-12.32.0-1.36.0-1.8-.71-1.18-1.9.72-1.39 1.46-2.77 2.15-4.18.11-.23.11-.61.0-.84-.71-1.44-1.46-2.86-2.19-4.28-.54-1.06-.09-1.79 1.1-1.79 4.12.0 8.25.0 12.37.0.23.0.46.0.73.0.0-1.7.0-3.35.0-5.08-.25.0-.47.0-.7.0-2.58.0-5.15-.01-7.73.01-.57.0-1.04-.15-1.48-.52-2.02-1.66-4.05-3.3-6.08-4.95-.83-.68-.85-1.34-.02-2.01C3.21 8.15 5.28 6.46 7.37 4.8c.32-.25.8-.42 1.2-.42 2.63-.04 5.27-.02 7.9-.02.21.0.42.0.73.0C17.06 2.72 17.67 1.55 19.25 1 19.64 1 20.02 1 20.41 1zM3.24 10.83c1.68 1.37 3.29 2.7 4.93 3.99.28.22.68.37 1.03.37 8.63.02 17.27.02 25.9.02.2.0.41.0.73.0-.63-1.15-1.15-2.22-1.78-3.23-.51-.81-.5-1.49.01-2.3.63-1 1.15-2.08 1.76-3.19-.24-.02-.38-.03-.53-.03-8.75.0-17.5.0-26.25.01-.2.0-.44.04-.59.16C6.73 7.99 5.02 9.39 3.24 10.83zM36.25 28.89c-1.12-1.35-2.22-2.65-3.29-3.97-.26-.32-.52-.44-.93-.44-8.64.01-17.27.01-25.91.01-.18.0-.37.02-.62.03.1.23.17.4.26.57.53 1.03 1.06 2.06 1.61 3.08.26.49.27.93.0 1.42-.57 1.05-1.11 2.12-1.66 3.19-.07.14-.13.3-.21.5.32.0.55.0.78.0 5.75.0 11.5.0 17.25.0 2.85.0 5.69.01 8.54-.01.24.0.56-.08.71-.25C33.95 31.68 35.07 30.3 36.25 28.89zM20.28 22.36c0-1.68.0-3.33.0-5-.32.0-.62.0-.92.0.0 1.7.0 3.34.0 5C19.69 22.36 19.97 22.36 20.28 22.36zM20.45 4.33c-.17-.47-.28-.83-.44-1.17-.03-.06-.42-.04-.45.03-.14.35-.21.72-.33 1.14C19.68 4.33 19.96 4.33 20.45 4.33z"/></g><path class="st0" d="M18.79 2.3h2.29v2.46H18.79z"/><path class="st0" d="M18.79 16.95h2.29v5.91H18.79z"/><path class="st0" d="M18.27 34.36h3.29V60.5H18.27z"/></g></svg>