<?xml version="1.0" encoding="utf-8"?>
<!-- Generator: Adobe Illustrator 23.0.5, SVG Export Plug-In . SVG Version: 6.00 Build 0)  -->
<svg version="1.1" id="Слой_1" xmlns="http://www.w3.org/2000/svg" xmlns:xlink="http://www.w3.org/1999/xlink" x="0px" y="0px"
	 viewBox="0 0 39 61" style="enable-background:new 0 0 39 61;" xml:space="preserve">
<style type="text/css">
	.st0{fill:#FFFFFF;}
</style>
<g>
	<g>
		<path class="st0" d="M20.41,1c0.92,0.4,1.69,0.94,1.91,1.99c0.09,0.43,0.08,0.87,0.12,1.37c0.25,0,0.48,0,0.7,0
			c4.72,0,9.45,0,14.17,0c0.47,0,0.9,0.04,1.17,0.47c0.28,0.43,0.18,0.84-0.05,1.25c-0.79,1.44-1.57,2.89-2.37,4.32
			c-0.17,0.31-0.18,0.53-0.01,0.84c0.79,1.4,1.55,2.81,2.32,4.22c0.61,1.12,0.18,1.84-1.11,1.84c-4.7,0.01-9.41,0-14.11,0
			c-0.23,0-0.46,0-0.72,0c0,1.72,0,3.37,0,5.08c0.23,0,0.44,0,0.65,0c3.19,0,6.39,0.01,9.58-0.01c0.64,0,1.1,0.21,1.5,0.7
			c1.32,1.62,2.67,3.22,4.01,4.82c0.67,0.8,0.66,1.16-0.02,1.98c-1.34,1.61-2.69,3.2-4.01,4.82c-0.39,0.47-0.85,0.68-1.45,0.68
			c-3.17-0.01-6.35-0.01-9.52-0.01c-0.23,0-0.46,0-0.77,0c0,0.27,0,0.49,0,0.72c0,7.65-0.01,15.29,0.01,22.94
			c0,0.64-0.14,1.14-0.72,1.46c-0.23,0-0.46,0-0.7,0c-0.55-0.37-0.7-0.89-0.7-1.54c0.02-7.62,0.01-15.25,0.01-22.87
			c0-0.22,0-0.45,0-0.68c-0.36,0-0.64,0-0.99,0c0,0.28,0,0.52,0,0.77c0,7.56,0,15.13,0.01,22.69c0,0.65-0.1,1.21-0.65,1.62
			c-0.27,0-0.54,0-0.81,0c-0.56-0.4-0.67-0.97-0.67-1.62c0.01-7.55,0.01-15.11,0.01-22.66c0-0.25,0-0.5,0-0.84c-0.26,0-0.48,0-0.7,0
			c-4.11,0-8.21,0-12.32,0c-1.36,0-1.8-0.71-1.18-1.9c0.72-1.39,1.46-2.77,2.15-4.18c0.11-0.23,0.11-0.61,0-0.84
			c-0.71-1.44-1.46-2.86-2.19-4.28c-0.54-1.06-0.09-1.79,1.1-1.79c4.12,0,8.25,0,12.37,0c0.23,0,0.46,0,0.73,0c0-1.7,0-3.35,0-5.08
			c-0.25,0-0.47,0-0.7,0c-2.58,0-5.15-0.01-7.73,0.01c-0.57,0-1.04-0.15-1.48-0.52c-2.02-1.66-4.05-3.3-6.08-4.95
			c-0.83-0.68-0.85-1.34-0.02-2.01C3.21,8.15,5.28,6.46,7.37,4.8c0.32-0.25,0.8-0.42,1.2-0.42c2.63-0.04,5.27-0.02,7.9-0.02
			c0.21,0,0.42,0,0.73,0C17.06,2.72,17.67,1.55,19.25,1C19.64,1,20.02,1,20.41,1z M3.24,10.83c1.68,1.37,3.29,2.7,4.93,3.99
			c0.28,0.22,0.68,0.37,1.03,0.37c8.63,0.02,17.27,0.02,25.9,0.02c0.2,0,0.41,0,0.73,0c-0.63-1.15-1.15-2.22-1.78-3.23
			c-0.51-0.81-0.5-1.49,0.01-2.3c0.63-1,1.15-2.08,1.76-3.19c-0.24-0.02-0.38-0.03-0.53-0.03c-8.75,0-17.5,0-26.25,0.01
			c-0.2,0-0.44,0.04-0.59,0.16C6.73,7.99,5.02,9.39,3.24,10.83z M36.25,28.89c-1.12-1.35-2.22-2.65-3.29-3.97
			c-0.26-0.32-0.52-0.44-0.93-0.44c-8.64,0.01-17.27,0.01-25.91,0.01c-0.18,0-0.37,0.02-0.62,0.03c0.1,0.23,0.17,0.4,0.26,0.57
			c0.53,1.03,1.06,2.06,1.61,3.08c0.26,0.49,0.27,0.93,0,1.42c-0.57,1.05-1.11,2.12-1.66,3.19c-0.07,0.14-0.13,0.3-0.21,0.5
			c0.32,0,0.55,0,0.78,0c5.75,0,11.5,0,17.25,0c2.85,0,5.69,0.01,8.54-0.01c0.24,0,0.56-0.08,0.71-0.25
			C33.95,31.68,35.07,30.3,36.25,28.89z M20.28,22.36c0-1.68,0-3.33,0-5c-0.32,0-0.62,0-0.92,0c0,1.7,0,3.34,0,5
			C19.69,22.36,19.97,22.36,20.28,22.36z M20.45,4.33c-0.17-0.47-0.28-0.83-0.44-1.17c-0.03-0.06-0.42-0.04-0.45,0.03
			c-0.14,0.35-0.21,0.72-0.33,1.14C19.68,4.33,19.96,4.33,20.45,4.33z"/>
	</g>
	<rect x="18.79" y="2.3" class="st0" width="2.29" height="2.46"/>
	<rect x="18.79" y="16.95" class="st0" width="2.29" height="5.91"/>
	<rect x="18.27" y="34.36" class="st0" width="3.29" height="26.14"/>
</g>
</svg>
