<?xml version="1.0" encoding="utf-8"?>
<!-- Generator: Adobe Illustrator 23.0.5, SVG Export Plug-In . SVG Version: 6.00 Build 0)  -->
<svg version="1.1" id="Слой_1" xmlns="http://www.w3.org/2000/svg" xmlns:xlink="http://www.w3.org/1999/xlink" x="0px" y="0px"
	 viewBox="0 0 61 51" style="enable-background:new 0 0 61 51;" xml:space="preserve">
<style type="text/css">
	.st0{fill:#FFFFFF;}
</style>
<g>
	<path class="st0" d="M1,17.45c0-2.81,0-5.61,0-8.42c0.02-0.06,0.05-0.11,0.06-0.17c0.32-2.48,2.47-4.42,4.97-4.47
		c1.43-0.03,2.87-0.01,4.3-0.01c0.12,0,0.24,0,0.37,0c0-0.44,0-0.84,0-1.23C10.72,1.33,12.04,0,13.86,0c11.34,0,22.68,0,34.03,0
		c0.29,0,0.59,0.03,0.87,0.1c1.36,0.36,2.27,1.55,2.29,2.98c0.01,0.42,0,0.85,0,1.3c0.15,0,0.26,0,0.37,0c1.4,0,2.81-0.02,4.21,0.01
		c2.86,0.05,5.11,2.33,5.12,5.19c0.01,2.45,0.01,4.9,0,7.35c-0.01,2.44-1.68,4.5-4.07,5.03c-0.19,0.04-0.37,0.08-0.57,0.12
		c0,0.15,0,0.28,0,0.41c0,7,0,14.01,0,21.01c0,0.15-0.06,0.29-0.1,0.44c0.33,1.17,0.72,2.34,1.09,3.51
		c0.09,0.28,0.13,0.61,0.08,0.89c-0.13,0.83-0.77,1.37-1.59,1.43c-0.82,0.06-1.5-0.42-1.78-1.24c-0.61-1.82-1.21-3.65-1.81-5.48
		c-0.69-2.09-1.38-4.17-2.07-6.26c-0.24-0.73-0.05-1.46,0.49-1.91c0.57-0.47,1.32-0.54,1.99-0.19c0.06,0.03,0.12,0.05,0.18,0.08
		c0-4.23,0-8.43,0-12.64c-1.05,0-2.08,0-3.15,0c0,6.81,0,13.61,0,20.4c-12.41,0-24.78,0-37.2,0c0-6.81,0-13.6,0-20.4
		c-1.41,0-2.79,0-4.18,0c0,4.52,0,9.01,0,13.47c0.34,0.09,0.68,0.12,0.98,0.26c0.81,0.37,1.15,1.26,0.85,2.16
		c-0.78,2.39-1.58,4.78-2.36,7.17c-0.5,1.51-0.99,3.02-1.5,4.53c-0.31,0.93-1.19,1.44-2.07,1.22c-1.01-0.26-1.56-1.23-1.23-2.24
		c0.57-1.77,1.17-3.54,1.75-5.31c0.05-0.16,0.1-0.33,0.1-0.5c0.01-6.93,0-13.86,0.01-20.79c0-0.19-0.06-0.28-0.24-0.35
		c-1.34-0.52-2.33-1.43-2.91-2.75C1.25,18.51,1.15,17.97,1,17.45z M47.51,40.56c0-0.13,0-0.22,0-0.31c0-7.27,0.02-14.53-0.01-21.8
		c-0.01-1.78-0.56-3.41-1.74-4.79c-0.43-0.5-0.88-0.99-1.33-1.46c-0.09-0.1-0.25-0.17-0.38-0.17c-8.78-0.01-17.56-0.01-26.34,0
		c-0.12,0-0.27,0.07-0.36,0.16c-0.37,0.39-0.72,0.8-1.09,1.19c-1.35,1.43-1.99,3.16-1.99,5.09c-0.03,7.26-0.01,14.51-0.01,21.77
		c0,0.11,0.01,0.21,0.02,0.33C25.36,40.56,36.41,40.56,47.51,40.56z M12.71,4.36c12.13,0,24.23,0,36.34,0c0-0.51,0.03-1-0.02-1.48
		c-0.02-0.22-0.18-0.45-0.34-0.62c-0.24-0.26-0.58-0.3-0.93-0.3c-11.26,0-22.52,0-33.78,0c-0.08,0-0.16,0-0.24,0
		c-0.54,0.04-1,0.42-1.03,0.91C12.68,3.37,12.71,3.85,12.71,4.36z"/>
	<path class="st0" d="M30.85,17.1c-4.2,0-8.39,0-12.59,0c-0.6,0-0.95-0.22-1.1-0.67c-0.2-0.61,0.23-1.25,0.86-1.29
		c0.09-0.01,0.18,0,0.27,0c8.39,0,16.78,0,25.17,0c0.14,0,0.29,0,0.42,0.03c0.48,0.11,0.81,0.57,0.76,1.04
		c-0.05,0.5-0.44,0.87-0.95,0.9c-0.12,0.01-0.24,0-0.37,0C39.18,17.1,35.01,17.1,30.85,17.1z"/>
</g>
</svg>
