<?xml version="1.0" encoding="utf-8"?>
<!-- Generator: Adobe Illustrator 23.0.5, SVG Export Plug-In . SVG Version: 6.00 Build 0)  -->
<svg version="1.1" id="Слой_1" xmlns="http://www.w3.org/2000/svg" xmlns:xlink="http://www.w3.org/1999/xlink" x="0px" y="0px"
	 viewBox="0 0 52 44" style="enable-background:new 0 0 52 44;" xml:space="preserve">
<style type="text/css">
	.st0{fill:#185690;}
</style>
<g>
	<path class="st0" d="M0.98,15.48c0-2.39,0-4.77,0-7.16c0.02-0.05,0.04-0.09,0.05-0.14c0.27-2.11,2.1-3.76,4.23-3.8
		c1.22-0.03,2.44-0.01,3.66-0.01c0.1,0,0.2,0,0.31,0c0-0.37,0-0.71,0-1.05c0.02-1.55,1.14-2.68,2.69-2.68c9.64,0,19.28,0,28.93,0
		c0.25,0,0.5,0.03,0.74,0.09c1.16,0.31,1.93,1.32,1.95,2.53c0.01,0.36,0,0.72,0,1.11c0.13,0,0.22,0,0.31,0
		c1.19,0,2.39-0.02,3.58,0.01c2.43,0.04,4.34,1.98,4.35,4.41c0.01,2.08,0.01,4.17,0,6.25c-0.01,2.07-1.43,3.83-3.46,4.28
		c-0.16,0.03-0.31,0.07-0.48,0.1c0,0.13,0,0.24,0,0.35c0,5.95,0,11.91,0,17.86c0,0.13-0.05,0.25-0.09,0.37
		c0.28,0.99,0.61,1.99,0.93,2.98c0.08,0.24,0.11,0.52,0.07,0.76c-0.11,0.71-0.65,1.16-1.35,1.22c-0.7,0.05-1.28-0.36-1.51-1.05
		c-0.52-1.55-1.03-3.1-1.54-4.66c-0.59-1.78-1.17-3.55-1.76-5.32c-0.2-0.62-0.04-1.24,0.42-1.62c0.48-0.4,1.12-0.46,1.69-0.16
		c0.05,0.03,0.1,0.04,0.15,0.07c0-3.6,0-7.17,0-10.75c-0.89,0-1.77,0-2.68,0c0,5.79,0,11.57,0,17.34c-10.55,0-21.07,0-31.63,0
		c0-5.79,0-11.56,0-17.34c-1.2,0-2.37,0-3.55,0c0,3.84,0,7.66,0,11.45c0.29,0.08,0.58,0.1,0.83,0.22c0.69,0.31,0.98,1.07,0.72,1.84
		c-0.66,2.03-1.34,4.06-2.01,6.1c-0.43,1.28-0.84,2.57-1.28,3.85c-0.26,0.79-1.01,1.22-1.76,1.04c-0.86-0.22-1.33-1.05-1.05-1.9
		c0.48-1.5,0.99-3.01,1.49-4.51c0.04-0.14,0.09-0.28,0.09-0.43c0.01-5.89,0-11.78,0.01-17.68c0-0.16-0.05-0.24-0.2-0.3
		c-1.14-0.44-1.98-1.22-2.47-2.34C1.19,16.38,1.1,15.92,0.98,15.48z M40.52,35.13c0-0.11,0-0.19,0-0.26
		c0-6.18,0.02-12.35-0.01-18.53c-0.01-1.51-0.48-2.9-1.48-4.07c-0.37-0.43-0.75-0.84-1.13-1.24c-0.08-0.09-0.21-0.14-0.32-0.14
		c-7.46-0.01-14.93-0.01-22.39,0c-0.1,0-0.23,0.06-0.31,0.14c-0.31,0.33-0.61,0.68-0.93,1.01c-1.15,1.22-1.69,2.69-1.69,4.33
		c-0.03,6.17-0.01,12.34-0.01,18.51c0,0.09,0.01,0.18,0.02,0.28C21.69,35.13,31.08,35.13,40.52,35.13z M10.93,4.35
		c10.31,0,20.6,0,30.9,0c0-0.43,0.03-0.85-0.02-1.26c-0.02-0.19-0.15-0.38-0.29-0.53c-0.2-0.22-0.49-0.26-0.79-0.26
		c-9.57,0-19.15,0-28.72,0c-0.07,0-0.14,0-0.2,0c-0.46,0.03-0.85,0.36-0.88,0.77C10.91,3.51,10.93,3.92,10.93,4.35z"/>
	<path class="st0" d="M26.35,15.19c-3.57,0-7.13,0-10.7,0c-0.51,0-0.81-0.19-0.94-0.57c-0.17-0.52,0.2-1.06,0.73-1.1
		c0.08-0.01,0.15,0,0.23,0c7.13,0,14.27,0,21.4,0c0.12,0,0.25,0,0.36,0.03c0.41,0.09,0.69,0.48,0.65,0.88
		c-0.04,0.43-0.37,0.74-0.81,0.77c-0.1,0.01-0.2,0-0.31,0C33.44,15.19,29.89,15.19,26.35,15.19z"/>
</g>
</svg>
