<svg id="Слой_1" xmlns="http://www.w3.org/2000/svg" xmlns:xlink="http://www.w3.org/1999/xlink" viewBox="0 0 61 51" style="enable-background:new 0 0 61 51"><style>.st0{fill:#fff}</style><g><path class="st0" d="M1 17.45c0-2.81.0-5.61.0-8.42.02-.06.05-.11.06-.17.32-2.48 2.47-4.42 4.97-4.47 1.43-.03 2.87-.01 4.3-.01.12.0.24.0.37.0.0-.44.0-.84.0-1.23C10.72 1.33 12.04.0 13.86.0 25.2.0 36.54.0 47.89.0c.29.0.59.03.87.1 1.36.36 2.27 1.55 2.29 2.98.01.42.0.85.0 1.3.15.0.26.0.37.0 1.4.0 2.81-.02 4.21.01 2.86.05 5.11 2.33 5.12 5.19.01 2.45.01 4.9.0 7.35-.01 2.44-1.68 4.5-4.07 5.03-.19.04-.37.08-.57.12.0.15.0.28.0.41.0 7 0 14.01.0 21.01.0.15-.06.29-.1.44.33 1.17.72 2.34 1.09 3.51.09.28.13.61.08.89-.13.83-.77 1.37-1.59 1.43-.82.06-1.5-.42-1.78-1.24-.61-1.82-1.21-3.65-1.81-5.48-.69-2.09-1.38-4.17-2.07-6.26-.24-.73-.05-1.46.49-1.91.57-.47 1.32-.54 1.99-.19.06.03.12.05.18.08.0-4.23.0-8.43.0-12.64-1.05.0-2.08.0-3.15.0.0 6.81.0 13.61.0 20.4-12.41.0-24.78.0-37.2.0.0-6.81.0-13.6.0-20.4-1.41.0-2.79.0-4.18.0.0 4.52.0 9.01.0 13.47.34.09.68.12.98.26.81.37 1.15 1.26.85 2.16-.78 2.39-1.58 4.78-2.36 7.17-.5 1.51-.99 3.02-1.5 4.53-.31.93-1.19 1.44-2.07 1.22-1.01-.26-1.56-1.23-1.23-2.24.57-1.77 1.17-3.54 1.75-5.31.05-.16.1-.33.1-.5.01-6.93.0-13.86.01-20.79.0-.19-.06-.28-.24-.35-1.34-.52-2.33-1.43-2.91-2.75C1.25 18.51 1.15 17.97 1 17.45zM47.51 40.56c0-.13.0-.22.0-.31.0-7.27.02-14.53-.01-21.8-.01-1.78-.56-3.41-1.74-4.79-.43-.5-.88-.99-1.33-1.46-.09-.1-.25-.17-.38-.17-8.78-.01-17.56-.01-26.34.0-.12.0-.27.07-.36.16-.37.39-.72.8-1.09 1.19-1.35 1.43-1.99 3.16-1.99 5.09-.03 7.26-.01 14.51-.01 21.77.0.11.01.21.02.33C25.36 40.56 36.41 40.56 47.51 40.56zM12.71 4.36c12.13.0 24.23.0 36.34.0.0-.51.03-1-.02-1.48-.02-.22-.18-.45-.34-.62-.24-.26-.58-.3-.93-.3-11.26.0-22.52.0-33.78.0-.08.0-.16.0-.24.0-.54.04-1 .42-1.03.91C12.68 3.37 12.71 3.85 12.71 4.36z"/><path class="st0" d="M30.85 17.1c-4.2.0-8.39.0-12.59.0-.6.0-.95-.22-1.1-.67-.2-.61.23-1.25.86-1.29.09-.01.18.0.27.0 8.39.0 16.78.0 25.17.0.14.0.29.0.42.03.48.11.81.57.76 1.04-.05.5-.44.87-.95.9-.12.01-.24.0-.37.0C39.18 17.1 35.01 17.1 30.85 17.1z"/></g></svg>