<svg id="Слой_1" xmlns="http://www.w3.org/2000/svg" xmlns:xlink="http://www.w3.org/1999/xlink" viewBox="0 0 52 44" style="enable-background:new 0 0 52 44"><style>.st0{fill:#185690}</style><g><path class="st0" d="M.98 15.48c0-2.39.0-4.77.0-7.16.02-.05.04-.09.05-.14.27-2.11 2.1-3.76 4.23-3.8 1.22-.03 2.44-.01 3.66-.01.1.0.2.0.31.0.0-.37.0-.71.0-1.05.02-1.55 1.14-2.68 2.69-2.68 9.64.0 19.28.0 28.93.0.25.0.5.03.74.09 1.16.31 1.93 1.32 1.95 2.53.01.36.0.72.0 1.11.13.0.22.0.31.0 1.19.0 2.39-.02 3.58.01 2.43.04 4.34 1.98 4.35 4.41.01 2.08.01 4.17.0 6.25-.01 2.07-1.43 3.83-3.46 4.28-.16.03-.31.07-.48.1.0.13.0.24.0.35.0 5.95.0 11.91.0 17.86.0.13-.05.25-.09.37.28.99.61 1.99.93 2.98.08.24.11.52.07.76-.11.71-.65 1.16-1.35 1.22-.7.05-1.28-.36-1.51-1.05-.52-1.55-1.03-3.1-1.54-4.66-.59-1.78-1.17-3.55-1.76-5.32-.2-.62-.04-1.24.42-1.62.48-.4 1.12-.46 1.69-.16.05.03.1.04.15.07.0-3.6.0-7.17.0-10.75-.89.0-1.77.0-2.68.0.0 5.79.0 11.57.0 17.34-10.55.0-21.07.0-31.63.0.0-5.79.0-11.56.0-17.34-1.2.0-2.37.0-3.55.0.0 3.84.0 7.66.0 11.45.29.08.58.1.83.22.69.31.98 1.07.72 1.84-.66 2.03-1.34 4.06-2.01 6.1-.43 1.28-.84 2.57-1.28 3.85-.26.79-1.01 1.22-1.76 1.04-.86-.22-1.33-1.05-1.05-1.9.48-1.5.99-3.01 1.49-4.51.04-.14.09-.28.09-.43.01-5.89.0-11.78.01-17.68.0-.16-.05-.24-.2-.3-1.14-.44-1.98-1.22-2.47-2.34C1.19 16.38 1.1 15.92.98 15.48zM40.52 35.13c0-.11.0-.19.0-.26.0-6.18.02-12.35-.01-18.53-.01-1.51-.48-2.9-1.48-4.07-.37-.43-.75-.84-1.13-1.24-.08-.09-.21-.14-.32-.14-7.46-.01-14.93-.01-22.39.0-.1.0-.23.06-.31.14-.31.33-.61.68-.93 1.01-1.15 1.22-1.69 2.69-1.69 4.33-.03 6.17-.01 12.34-.01 18.51.0.09.01.18.02.28C21.69 35.13 31.08 35.13 40.52 35.13zM10.93 4.35c10.31.0 20.6.0 30.9.0.0-.43.03-.85-.02-1.26-.02-.19-.15-.38-.29-.53-.2-.22-.49-.26-.79-.26-9.57.0-19.15.0-28.72.0-.07.0-.14.0-.2.0-.46.03-.85.36-.88.77C10.91 3.51 10.93 3.92 10.93 4.35z"/><path class="st0" d="M26.35 15.19c-3.57.0-7.13.0-10.7.0-.51.0-.81-.19-.94-.57-.17-.52.2-1.06.73-1.1.08-.01.15.0.23.0 7.13.0 14.27.0 21.4.0.12.0.25.0.36.03.41.09.69.48.65.88-.04.43-.37.74-.81.77-.1.01-.2.0-.31.0C33.44 15.19 29.89 15.19 26.35 15.19z"/></g></svg>