<?xml version="1.0" encoding="utf-8"?>
<!-- Generator: Adobe Illustrator 23.0.5, SVG Export Plug-In . SVG Version: 6.00 Build 0)  -->
<svg version="1.1" id="Слой_1" xmlns="http://www.w3.org/2000/svg" xmlns:xlink="http://www.w3.org/1999/xlink" x="0px" y="0px"
	 viewBox="0 0 66 50" style="enable-background:new 0 0 66 50;" xml:space="preserve">
<style type="text/css">
	.st0{fill:#FFFFFF;}
	.st1{fill:#FFFFFF;stroke:#FFFFFF;stroke-width:2;stroke-miterlimit:10;}
	.st2{fill:#FFFFFF;stroke:#FFFFFF;stroke-miterlimit:10;}
	.st3{fill:none;stroke:#FFFFFF;stroke-width:3;stroke-miterlimit:10;}
</style>
<g>
	<g>
		<path class="st0" d="M37.66,49.22c-1.61-0.19-7-0.85-7-0.85c-0.22-0.03-0.54-0.09-0.81-0.37l-1.41-0.82L7.38,34.74
			c-0.15,0.18-0.23,0.41-0.21,0.64c0.02,0.29,0.18,0.54,0.44,0.69l8.28,4.89c0.19,0.12,0.35,0.25,0.46,0.39
			c0.32,0.42,0.28,1.03-0.08,1.43c-0.22,0.25-0.53,0.39-0.87,0.39c-0.17,0-0.35-0.04-0.51-0.12c-0.05-0.02-0.09-0.05-0.13-0.07
			l-8.13-4.8c-0.68-0.4-1.13-0.85-1.41-1.41c-0.53-1.05-0.46-2.25,0.18-3.21l-1.45-0.85c-0.15-0.07-0.22-0.11-0.29-0.15
			c-0.26-0.17-0.43-0.44-0.49-0.75c-0.06-0.33,0.02-0.67,0.21-0.94c0.03-0.04,0.05-0.08,0.07-0.12l-0.21-0.13
			c-0.5-0.29-0.99-0.59-1.49-0.88c-0.23-0.12-0.46-0.25-0.6-0.52C1,28.93,0.88,28.48,1.23,27.95c0.22-0.34,0.42-0.69,0.62-1.04
			l0.39-0.69c0.12-0.22,0.24-0.43,0.37-0.65c0.08-0.14,0.19-0.23,0.27-0.3l0.1-0.1l0.2-0.09l0.4-0.1l0.1,0.01
			c0.23,0.03,0.44,0.11,0.67,0.25c0.53,0.33,1.08,0.65,1.63,0.97l0.13,0.08c0.02-0.04,0.04-0.08,0.06-0.13
			c0.19-0.42,0.61-0.69,1.08-0.69c0.26,0,0.5,0.08,0.7,0.24c0.03,0.03,0.07,0.05,0.1,0.07l25.86,15.25c0.58,0.2,0.87,0.65,1.1,1.02
			c0.06,0.09,0.12,0.18,0.18,0.26c0.87,1.19,1.74,2.39,2.6,3.59l1.16,1.61l0.06,0.14l0.08,0.33l-0.01,0.09
			c-0.06,0.53-0.31,0.89-0.72,1.05c-0.16,0.06-0.34,0.1-0.51,0.1L37.66,49.22z M30.24,45.52l1.71-2.9L7.65,28.28l-1.71,2.9
			L30.24,45.52z"/>
		<path class="st0" d="M3.59,25.48c0.17,0.03,0.32,0.09,0.48,0.18c0.72,0.44,1.45,0.87,2.2,1.31c0.12-0.21,0.24-0.4,0.34-0.61
			c0.11-0.25,0.37-0.4,0.63-0.4c0.14,0,0.27,0.04,0.39,0.13c0.05,0.04,0.1,0.07,0.16,0.11c8.64,5.09,17.27,10.19,25.91,15.28
			c0.57,0.18,0.78,0.7,1.09,1.12c1.21,1.65,2.4,3.32,3.6,4.98c0.05,0.06,0.09,0.13,0.13,0.19c0.02,0.08,0.04,0.16,0.06,0.25
			c-0.03,0.28-0.13,0.53-0.41,0.64c-0.1,0.04-0.22,0.06-0.33,0.06c-0.03,0-0.07,0-0.1-0.01c-2.33-0.28-4.67-0.57-7-0.85
			c-0.19-0.02-0.37-0.08-0.51-0.22c-0.04-0.04-0.09-0.06-0.13-0.09c-7.54-4.45-15.08-8.9-22.62-13.35
			c-0.05-0.03-0.09-0.04-0.13-0.04c-0.05,0-0.1,0.03-0.16,0.07c-0.74,0.62-0.66,1.76,0.17,2.26c2.76,1.63,5.52,3.26,8.28,4.89
			c0.12,0.07,0.23,0.16,0.31,0.26c0.18,0.24,0.15,0.58-0.05,0.8c-0.13,0.14-0.31,0.22-0.49,0.22c-0.1,0-0.2-0.02-0.29-0.07
			c-0.04-0.02-0.07-0.04-0.11-0.06c-2.71-1.6-5.41-3.19-8.12-4.79c-0.51-0.3-0.95-0.67-1.22-1.21c-0.51-1.01-0.36-2.15,0.38-3
			c0.03-0.04,0.06-0.07,0.12-0.14c-0.11-0.05-0.21-0.1-0.31-0.15c-0.55-0.32-1.1-0.65-1.65-0.97c-0.09-0.05-0.18-0.08-0.27-0.14
			c-0.32-0.21-0.38-0.67-0.15-0.98c0.13-0.18,0.22-0.39,0.33-0.59c-0.01,0-0.03-0.03-0.06-0.05c-0.68-0.4-1.36-0.81-2.05-1.21
			c-0.18-0.07-0.35-0.13-0.44-0.3c-0.14-0.27-0.11-0.51,0.06-0.77c0.27-0.42,0.52-0.86,0.77-1.3c0.21-0.37,0.41-0.74,0.62-1.1
			c0.06-0.1,0.17-0.18,0.26-0.27C3.38,25.54,3.48,25.51,3.59,25.48 M30.42,46.21c0.74-1.26,1.49-2.52,2.22-3.77
			c-8.39-4.95-16.79-9.91-25.16-14.85C6.74,28.84,6,30.11,5.26,31.36C13.63,36.3,22.03,41.26,30.42,46.21 M3.53,24.47l-0.2,0.05
			l-0.22,0.06L3.02,24.6l-0.27,0.07l-0.18,0.19L2.53,24.9c-0.1,0.09-0.24,0.22-0.37,0.42c-0.13,0.22-0.26,0.44-0.38,0.67
			c-0.08,0.15-0.17,0.3-0.25,0.45l-0.12,0.2C1.21,27,1,27.35,0.78,27.69c-0.37,0.57-0.4,1.21-0.1,1.78
			c0.22,0.41,0.55,0.59,0.74,0.69l0.06,0.03c0.43,0.25,0.85,0.5,1.28,0.75c-0.12,0.3-0.16,0.64-0.1,0.96
			c0.08,0.45,0.33,0.83,0.71,1.08c0.09,0.06,0.18,0.11,0.28,0.15l0.8,0.47l0.26,0.15c-0.49,1.02-0.48,2.19,0.05,3.25
			c0.33,0.65,0.84,1.17,1.61,1.62l5.93,3.5l2.19,1.29c0.07,0.04,0.13,0.07,0.18,0.1c0.22,0.11,0.47,0.17,0.72,0.17
			c0.48,0,0.93-0.2,1.24-0.56c0.52-0.59,0.56-1.46,0.1-2.07c-0.15-0.2-0.35-0.37-0.6-0.52l-3.89-2.3c-1.46-0.86-2.92-1.73-4.38-2.59
			c-0.05-0.03-0.09-0.07-0.12-0.1c6.18,3.65,12.37,7.3,18.55,10.95l3.29,1.94l0,0c0.27,0.25,0.61,0.39,1.03,0.44l2.34,0.28
			c1.56,0.19,3.11,0.38,4.67,0.56c0.07,0.01,0.14,0.01,0.21,0.01c0.24,0,0.48-0.04,0.7-0.13c0.34-0.13,0.93-0.5,1.04-1.46l0.02-0.18
			l-0.05-0.18l-0.02-0.08l-0.04-0.16l-0.05-0.18l-0.1-0.15l-0.04-0.06l-0.1-0.15l-0.95-1.32c-0.88-1.22-1.76-2.45-2.65-3.66
			c-0.06-0.08-0.11-0.16-0.16-0.24c-0.24-0.38-0.6-0.94-1.31-1.2l-1.13-0.67L8.28,25.34c-0.01-0.01-0.03-0.02-0.04-0.03
			c-0.28-0.22-0.64-0.35-1.01-0.35c-0.53,0-1.01,0.24-1.33,0.64c-0.44-0.26-0.88-0.52-1.31-0.78c-0.28-0.17-0.56-0.28-0.85-0.32
			L3.53,24.47L3.53,24.47z M6.63,31.01l0.41-0.7l0.79-1.34l6.67,3.93l16.77,9.9l-0.43,0.73l-0.78,1.31l-12.08-7.13L6.63,31.01
			L6.63,31.01z"/>
	</g>
</g>
<path class="st1" d="M15.3,25.48"/>
<g>
	<path class="st2" d="M65.49,14.8c-0.06-0.23-0.11-0.46-0.17-0.7c-0.13-0.55-0.26-1.11-0.48-1.66c-0.72-1.79-1.76-3.23-3.08-4.29
		c-1.34-1.07-2.98-1.76-4.88-2.05c-0.3-0.05-0.62-0.07-0.99-0.07c-0.42,0-0.84,0.03-1.24,0.06c-0.18,0.01-0.35,0.02-0.52,0.03
		c0-0.27,0-0.53,0-0.8c0-0.83,0-1.69,0-2.53c-0.01-1.57-0.95-2.51-2.52-2.51c-1.71,0-3.42,0-5.13,0h-3.57h-3.57
		c-5.99,0-12.96,0-19.89-0.01l0,0l0,0l0,0c-1.15,0-1.97,0.56-2.45,1.66l-0.06,0.14v0.16v24.48c0.73,0.44,1.8,1.07,3.07,1.81
		c0-8.35,0-16.69,0-25.17h31.06c0,2.75,0,5.51,0,8.26c0,7.61,0,15.47,0.02,23.21c0,0.62-0.18,1.11-0.53,1.47
		c-0.36,0.36-0.89,0.56-1.5,0.56h-0.01c-4.93-0.01-9.77-0.01-13.44-0.01c-0.42,0-0.83,0-1.25,0c1.86,1.09,3.09,1.82,3.11,1.88
		c0.04,0.13,1.56,2.31,3.03,4.41c0.45,0,0.89,0,1.34,0c2.2,0,3.99,0.01,5.63,0.03h0.04c0.98,0,1.9-0.38,2.53-1.04
		c0.6-0.64,0.9-1.5,0.85-2.42c0-0.03,0-0.05,0-0.07c0.02-0.01,0.03-0.01,0.05-0.02c1.8-0.55,3.11-2.29,3.18-4.22
		c0.02-0.57,0.02-1.13,0.02-1.68c0-0.13,0-0.26,0-0.39c0.44,0.06,0.89,0.09,1.34,0.09c2.4,0,4.73-0.87,6.56-2.45
		c1.83-1.58,3.03-3.77,3.38-6.16v-0.01c0.02-0.04,0.04-0.08,0.05-0.12l0.05-0.13V24.4v-9.37v-0.1L65.49,14.8z M59.2,23.44
		c-0.04,2.01-1.73,3.64-3.76,3.64c-0.45,0-0.89-0.08-1.31-0.25c0.01-1.82,0.01-3.66,0.01-5.44c0-0.59,0-1.17,0-1.76
		c0-0.61,0-1.21,0-1.82c0-1.72,0.01-3.5-0.01-5.25c0-0.02,0-0.04,0-0.05c0.01,0,0.02-0.01,0.04-0.01c0.41-0.15,0.84-0.22,1.27-0.22
		c2.03,0,3.72,1.63,3.77,3.63C59.26,18.35,59.26,20.88,59.2,23.44z"/>
</g>
<path class="st3" d="M19.53,8.84c0,0,12.71-0.13,14.12,8.08c1.92,11.16-13.72,10.37-13.72,10.37"/>
</svg>
