<svg id="Слой_1" xmlns="http://www.w3.org/2000/svg" xmlns:xlink="http://www.w3.org/1999/xlink" viewBox="0 0 66 50" style="enable-background:new 0 0 66 50"><style>.st0{fill:#fff}.st1{fill:#fff;stroke:#fff;stroke-width:2;stroke-miterlimit:10}.st2{fill:#fff;stroke:#fff;stroke-miterlimit:10}.st3{fill:none;stroke:#fff;stroke-width:3;stroke-miterlimit:10}</style><g><g><path class="st0" d="M37.66 49.22c-1.61-.19-7-.85-7-.85-.22-.03-.54-.09-.81-.37l-1.41-.82L7.38 34.74c-.15.18-.23.41-.21.64.02.29.18.54.44.69l8.28 4.89c.19.12.35.25.46.39.32.42.28 1.03-.08 1.43-.22.25-.53.39-.87.39-.17.0-.35-.04-.51-.12-.05-.02-.09-.05-.13-.07l-8.13-4.8c-.68-.4-1.13-.85-1.41-1.41-.53-1.05-.46-2.25.18-3.21l-1.45-.85c-.15-.07-.22-.11-.29-.15-.26-.17-.43-.44-.49-.75-.06-.33.02-.67.21-.94.03-.04.05-.08.07-.12l-.21-.13c-.5-.29-.99-.59-1.49-.88-.23-.12-.46-.25-.6-.52C1 28.93.88 28.48 1.23 27.95c.22-.34.42-.69.62-1.04l.39-.69c.12-.22.24-.43.37-.65.08-.14.19-.23.27-.3l.1-.1.2-.09.4-.1.1.01c.23.03.44.11.67.25.53.33 1.08.65 1.63.97l.13.08c.02-.04.04-.08.06-.13.19-.42.61-.69 1.08-.69.26.0.5.08.7.24.03.03.07.05.1.07l25.86 15.25c.58.2.87.65 1.1 1.02.06.09.12.18.18.26.87 1.19 1.74 2.39 2.6 3.59l1.16 1.61.06.14.08.33-.01.09c-.06.53-.31.89-.72 1.05-.16.06-.34.1-.51.1L37.66 49.22zM30.24 45.52l1.71-2.9L7.65 28.28l-1.71 2.9L30.24 45.52z"/><path class="st0" d="M3.59 25.48c.17.03.32.09.48.18.72.44 1.45.87 2.2 1.31.12-.21.24-.4.34-.61.11-.25.37-.4.63-.4.14.0.27.04.39.13.05.04.1.07.16.11 8.64 5.09 17.27 10.19 25.91 15.28.57.18.78.7 1.09 1.12 1.21 1.65 2.4 3.32 3.6 4.98.05.06.09.13.13.19.02.08.04.16.06.25-.03.28-.13.53-.41.64-.1.04-.22.06-.33.06-.03.0-.07.0-.1-.01-2.33-.28-4.67-.57-7-.85-.19-.02-.37-.08-.51-.22-.04-.04-.09-.06-.13-.09-7.54-4.45-15.08-8.9-22.62-13.35-.05-.03-.09-.04-.13-.04-.05.0-.1.03-.16.07-.74.62-.66 1.76.17 2.26 2.76 1.63 5.52 3.26 8.28 4.89.12.07.23.16.31.26.18.24.15.58-.05.8-.13.14-.31.22-.49.22-.1.0-.2-.02-.29-.07-.04-.02-.07-.04-.11-.06-2.71-1.6-5.41-3.19-8.12-4.79-.51-.3-.95-.67-1.22-1.21-.51-1.01-.36-2.15.38-3 .03-.04.06-.07.12-.14-.11-.05-.21-.1-.31-.15-.55-.32-1.1-.65-1.65-.97-.09-.05-.18-.08-.27-.14-.32-.21-.38-.67-.15-.98.13-.18.22-.39.33-.59-.01.0-.03-.03-.06-.05-.68-.4-1.36-.81-2.05-1.21-.18-.07-.35-.13-.44-.3-.14-.27-.11-.51.06-.77.27-.42.52-.86.77-1.3.21-.37.41-.74.62-1.1.06-.1.17-.18.26-.27C3.38 25.54 3.48 25.51 3.59 25.48M30.42 46.21c.74-1.26 1.49-2.52 2.22-3.77-8.39-4.95-16.79-9.91-25.16-14.85C6.74 28.84 6 30.11 5.26 31.36 13.63 36.3 22.03 41.26 30.42 46.21M3.53 24.47l-.2.05-.22.06L3.02 24.6l-.27.07-.18.19L2.53 24.9c-.1.09-.24.22-.37.42-.13.22-.26.44-.38.67-.08.15-.17.3-.25.45l-.12.2C1.21 27 1 27.35.78 27.69c-.37.57-.4 1.21-.1 1.78.22.41.55.59.74.69l.06.03c.43.25.85.5 1.28.75-.12.3-.16.64-.1.96.08.45.33.83.71 1.08.09.06.18.11.28.15l.8.47.26.15c-.49 1.02-.48 2.19.05 3.25.33.65.84 1.17 1.61 1.62l5.93 3.5 2.19 1.29c.07.04.13.07.18.1.22.11.47.17.72.17.48.0.93-.2 1.24-.56.52-.59.56-1.46.1-2.07-.15-.2-.35-.37-.6-.52l-3.89-2.3c-1.46-.86-2.92-1.73-4.38-2.59-.05-.03-.09-.07-.12-.1 6.18 3.65 12.37 7.3 18.55 10.95l3.29 1.94v0c.27.25.61.39 1.03.44l2.34.28c1.56.19 3.11.38 4.67.56.07.01.14.01.21.01.24.0.48-.04.7-.13.34-.13.93-.5 1.04-1.46l.02-.18-.05-.18-.02-.08-.04-.16-.05-.18-.1-.15-.04-.06-.1-.15-.95-1.32c-.88-1.22-1.76-2.45-2.65-3.66-.06-.08-.11-.16-.16-.24-.24-.38-.6-.94-1.31-1.2l-1.13-.67L8.28 25.34c-.01-.01-.03-.02-.04-.03-.28-.22-.64-.35-1.01-.35-.53.0-1.01.24-1.33.64-.44-.26-.88-.52-1.31-.78-.28-.17-.56-.28-.85-.32L3.53 24.47v0zM6.63 31.01l.41-.7.79-1.34 6.67 3.93 16.77 9.9-.43.73-.78 1.31-12.08-7.13L6.63 31.01v0z"/></g></g><path class="st1" d="M15.3 25.48"/><g><path class="st2" d="M65.49 14.8c-.06-.23-.11-.46-.17-.7-.13-.55-.26-1.11-.48-1.66-.72-1.79-1.76-3.23-3.08-4.29-1.34-1.07-2.98-1.76-4.88-2.05-.3-.05-.62-.07-.99-.07-.42.0-.84.03-1.24.06-.18.01-.35.02-.52.03.0-.27.0-.53.0-.8.0-.83.0-1.69.0-2.53-.01-1.57-.95-2.51-2.52-2.51-1.71.0-3.42.0-5.13.0h-3.57-3.57c-5.99.0-12.96.0-19.89-.01v0 0 0c-1.15.0-1.97.56-2.45 1.66l-.06.14v.16 24.48c.73.44 1.8 1.07 3.07 1.81.0-8.35.0-16.69.0-25.17h31.06c0 2.75.0 5.51.0 8.26.0 7.61.0 15.47.02 23.21.0.62-.18 1.11-.53 1.47-.36.36-.89.56-1.5.56h-.01c-4.93-.01-9.77-.01-13.44-.01-.42.0-.83.0-1.25.0 1.86 1.09 3.09 1.82 3.11 1.88.04.13 1.56 2.31 3.03 4.41.45.0.89.0 1.34.0 2.2.0 3.99.01 5.63.03h.04c.98.0 1.9-.38 2.53-1.04.6-.64.9-1.5.85-2.42.0-.03.0-.05.0-.07.02-.01.03-.01.05-.02 1.8-.55 3.11-2.29 3.18-4.22.02-.57.02-1.13.02-1.68.0-.13.0-.26.0-.39.44.06.89.09 1.34.09 2.4.0 4.73-.87 6.56-2.45 1.83-1.58 3.03-3.77 3.38-6.16v-.01c.02-.04.04-.08.05-.12l.05-.13V24.4v-9.37-.1L65.49 14.8zM59.2 23.44c-.04 2.01-1.73 3.64-3.76 3.64-.45.0-.89-.08-1.31-.25.01-1.82.01-3.66.01-5.44.0-.59.0-1.17.0-1.76.0-.61.0-1.21.0-1.82.0-1.72.01-3.5-.01-5.25.0-.02.0-.04.0-.05.01.0.02-.01.04-.01.41-.15.84-.22 1.27-.22 2.03.0 3.72 1.63 3.77 3.63C59.26 18.35 59.26 20.88 59.2 23.44z"/></g><path class="st3" d="M19.53 8.84c0 0 12.71-.13 14.12 8.08 1.92 11.16-13.72 10.37-13.72 10.37"/></svg>