<svg id="Слой_1" xmlns="http://www.w3.org/2000/svg" xmlns:xlink="http://www.w3.org/1999/xlink" viewBox="0 0 46 47" style="enable-background:new 0 0 46 47"><style>.st0{fill:#fff}</style><g><path class="st0" d="M27.57 23.93c.72-2.04 1.19-2.79 1.22-2.86.62-1.31 1.28-2.71 1.9-4.11.47-1.07.77-2.26.92-3.62.62-3.47-.54-5.99-.54-5.99.0.0.0.0.0.0-1.34-3.3-3.74-5.46-7.14-6.41-.36-.1-.72-.17-1.07-.24-.16-.03-.32-.06-.48-.1l-.04-.01H20.1l-.08.04c-.03.01-.06.03-.09.04-.01.0-.01.01-.02.01-1.56.19-3.01.72-4.3 1.57-2.83 1.86-4.43 4.46-4.75 7.72-.29 2.92.23 5.71 1.55 8.3 1.57 3.08 3.08 6.45 3.39 10.28.07.9.14 1.79.21 2.73.02.29.04.59.06.88h-.14c0 0-.01.0-.01.0-.55.0-1.1.0-1.65-.01-1.22-.01-2.47-.01-3.71.01-2.88.05-5.05 1.31-6.44 3.74-.3.53-.51 1.12-.71 1.69-.06.18-.13.37-.2.56.0.0.0.0.0.0-1.85.08-3.01 1.29-3.02 3.14.0.22.0.44.0.66.0.39.01.79-.01 1.17-.03.92.25 1.72.82 2.31.59.61 1.45.95 2.41.95.0.0.01.0.01.0 9-.03 18.15-.02 26.99-.02 2.89.0 5.78.0 8.66.0h.11c.16.0.32.0.49-.01 1.37-.09 2.53-1.25 2.59-2.59.04-.94.03-1.88.01-2.92-.02-.79-.38-1.48-1.07-2.05-.59-.49-1.27-.6-1.98-.65-.03-.14-.06-.28-.1-.42-.87-3.36-3.7-5.54-7.19-5.57-1.24-.01-2.51-.01-3.73.0-.55.0-1.11.0-1.66.0-.01.0-.01.0-.02.0h-.11l.37-4.46c0 0 .01.01.01.01C27.05 26.17 27.17 25.09 27.57 23.93zM25.72 22.75c-.9 2.69-1.35 5.63-1.44 9.4H18.3c-.08-2.69-.35-6.07-1.45-9.4H25.72zM26.9 34.41c1.82.0 3.7-.01 5.55.03 2 .04 4.04 1.73 4.53 3.71H5.59c.01-.03.02-.05.03-.08.15-.4.28-.77.48-1.1 1-1.67 2.43-2.52 4.25-2.54 3.62-.03 7.31-.03 10.87-.02 1.26.0 2.51.0 3.77.0C25.62 34.4 26.26 34.41 26.9 34.41z"/><path class="st0" d="M44.47 13.24c-1.12-2.16-2.96-3.96-5.19-5.06-1.99-.99-4.19-1.36-6.46-1.12 1 2.33.86 4.43.69 5.36 1.3-.13 2.63.17 3.83.88 1.74 1.04 2.83 2.77 3 4.73.16 1.79-.41 3.48-1.59 4.76-1.24 1.35-3.01 2.09-5 2.09-.01.0-.01.0-.02.0-1.45-.07-2.76-.64-3.81-1.64-.5 1.15-1.58 3.84-1.47 5.59.95.54 1.95.93 3 1.18 1.91.45 3.85.42 5.75-.1 1.88-.51 3.56-1.46 5-2.84 1.78-1.7 3-3.98 3.42-6.42C46.06 18.11 45.66 15.55 44.47 13.24z"/><path class="st0" d="M32.52 18.17v0c-.12-.12-.25-.25-.44-.32-.43-.16-.84-.03-1.07.34-.25.39-.2.83.15 1.17.46.46.92.92 1.38 1.38l.2.2c.28.28.54.43.8.43.26.0.52-.14.81-.43 1.04-1.04 2.08-2.08 3.12-3.12l.21-.21c.3-.3.45-.59.45-.88.0-.15-.05-.38-.26-.6-.19-.19-.73-.56-1.47.19l-2.86 2.86-.07-.07C33.14 18.79 32.84 18.48 32.52 18.17z"/></g></svg>