<?xml version="1.0" encoding="utf-8"?>
<!-- Generator: Adobe Illustrator 23.0.5, SVG Export Plug-In . SVG Version: 6.00 Build 0)  -->
<svg version="1.1" id="Слой_1" xmlns="http://www.w3.org/2000/svg" xmlns:xlink="http://www.w3.org/1999/xlink" x="0px" y="0px"
	 viewBox="0 0 46 47" style="enable-background:new 0 0 46 47;" xml:space="preserve">
<style type="text/css">
	.st0{fill:#FFFFFF;}
</style>
<g>
	<path class="st0" d="M27.57,23.93c0.72-2.04,1.19-2.79,1.22-2.86c0.62-1.31,1.28-2.71,1.9-4.11c0.47-1.07,0.77-2.26,0.92-3.62
		c0.62-3.47-0.54-5.99-0.54-5.99c0,0,0,0,0,0c-1.34-3.3-3.74-5.46-7.14-6.41c-0.36-0.1-0.72-0.17-1.07-0.24
		c-0.16-0.03-0.32-0.06-0.48-0.1l-0.04-0.01h-2.24l-0.08,0.04c-0.03,0.01-0.06,0.03-0.09,0.04c-0.01,0-0.01,0.01-0.02,0.01
		c-1.56,0.19-3.01,0.72-4.3,1.57c-2.83,1.86-4.43,4.46-4.75,7.72c-0.29,2.92,0.23,5.71,1.55,8.3c1.57,3.08,3.08,6.45,3.39,10.28
		c0.07,0.9,0.14,1.79,0.21,2.73c0.02,0.29,0.04,0.59,0.06,0.88h-0.14c0,0-0.01,0-0.01,0c-0.55,0-1.1,0-1.65-0.01
		c-1.22-0.01-2.47-0.01-3.71,0.01c-2.88,0.05-5.05,1.31-6.44,3.74c-0.3,0.53-0.51,1.12-0.71,1.69c-0.06,0.18-0.13,0.37-0.2,0.56
		c0,0,0,0,0,0c-1.85,0.08-3.01,1.29-3.02,3.14c0,0.22,0,0.44,0,0.66c0,0.39,0.01,0.79-0.01,1.17c-0.03,0.92,0.25,1.72,0.82,2.31
		c0.59,0.61,1.45,0.95,2.41,0.95c0,0,0.01,0,0.01,0c9-0.03,18.15-0.02,26.99-0.02c2.89,0,5.78,0,8.66,0l0.11,0
		c0.16,0,0.32,0,0.49-0.01c1.37-0.09,2.53-1.25,2.59-2.59c0.04-0.94,0.03-1.88,0.01-2.92c-0.02-0.79-0.38-1.48-1.07-2.05
		c-0.59-0.49-1.27-0.6-1.98-0.65c-0.03-0.14-0.06-0.28-0.1-0.42c-0.87-3.36-3.7-5.54-7.19-5.57c-1.24-0.01-2.51-0.01-3.73,0
		c-0.55,0-1.11,0-1.66,0c-0.01,0-0.01,0-0.02,0h-0.11l0.37-4.46c0,0,0.01,0.01,0.01,0.01C27.05,26.17,27.17,25.09,27.57,23.93z
		 M25.72,22.75c-0.9,2.69-1.35,5.63-1.44,9.4H18.3c-0.08-2.69-0.35-6.07-1.45-9.4H25.72z M26.9,34.41c1.82,0,3.7-0.01,5.55,0.03
		c2,0.04,4.04,1.73,4.53,3.71H5.59c0.01-0.03,0.02-0.05,0.03-0.08c0.15-0.4,0.28-0.77,0.48-1.1c1-1.67,2.43-2.52,4.25-2.54
		c3.62-0.03,7.31-0.03,10.87-0.02c1.26,0,2.51,0,3.77,0C25.62,34.4,26.26,34.41,26.9,34.41z"/>
	<path class="st0" d="M44.47,13.24c-1.12-2.16-2.96-3.96-5.19-5.06c-1.99-0.99-4.19-1.36-6.46-1.12c1,2.33,0.86,4.43,0.69,5.36
		c1.3-0.13,2.63,0.17,3.83,0.88c1.74,1.04,2.83,2.77,3,4.73c0.16,1.79-0.41,3.48-1.59,4.76c-1.24,1.35-3.01,2.09-5,2.09
		c-0.01,0-0.01,0-0.02,0c-1.45-0.07-2.76-0.64-3.81-1.64c-0.5,1.15-1.58,3.84-1.47,5.59c0.95,0.54,1.95,0.93,3,1.18
		c1.91,0.45,3.85,0.42,5.75-0.1c1.88-0.51,3.56-1.46,5-2.84c1.78-1.7,3-3.98,3.42-6.42C46.06,18.11,45.66,15.55,44.47,13.24z"/>
	<path class="st0" d="M32.52,18.17L32.52,18.17c-0.12-0.12-0.25-0.25-0.44-0.32c-0.43-0.16-0.84-0.03-1.07,0.34
		c-0.25,0.39-0.2,0.83,0.15,1.17c0.46,0.46,0.92,0.92,1.38,1.38l0.2,0.2c0.28,0.28,0.54,0.43,0.8,0.43c0.26,0,0.52-0.14,0.81-0.43
		c1.04-1.04,2.08-2.08,3.12-3.12l0.21-0.21c0.3-0.3,0.45-0.59,0.45-0.88c0-0.15-0.05-0.38-0.26-0.6c-0.19-0.19-0.73-0.56-1.47,0.19
		l-2.86,2.86l-0.07-0.07C33.14,18.79,32.84,18.48,32.52,18.17z"/>
</g>
</svg>
