<?xml version="1.0" encoding="utf-8"?>
<!-- Generator: Adobe Illustrator 23.0.5, SVG Export Plug-In . SVG Version: 6.00 Build 0)  -->
<svg version="1.1" id="Objects" xmlns="http://www.w3.org/2000/svg" xmlns:xlink="http://www.w3.org/1999/xlink" x="0px" y="0px"
	 viewBox="0 0 26 15" style="enable-background:new 0 0 26 15;" xml:space="preserve">
<style type="text/css">
	.st0{fill:#185690;}
</style>
<path class="st0" d="M5.3,0.9c0,0,2.1,4.3,2.6,5s1.7,2.1,2,0.9s0.2-3.4,0.2-3.4s0-2.2-1.3-2.3S9,0.3,9.3,0.2c0.3-0.1,1.3-0.1,3-0.1
	s2.7,0.1,2.8,1.7s0,4.3,0,4.3s0,1.1,0.2,1.1c0.3,0,1.3,0.1,2.3-2c1-2.1,2-4.6,2.7-4.6s4.4,0,4.4,0s2-0.2,0.5,1.8
	c-1.4,2-3.3,4.7-3.3,4.7s-1.1,1.2-0.2,2c0.9,0.7,3.4,3.9,3.4,3.9s1.5,1.7-0.5,1.7s-3.4,0-3.4,0s-1.7,0.1-2.1-0.4
	c-0.4-0.5-2-2.4-2-2.4s-1.1-1-1.5,0c-0.5,1.1-0.4,1.9-0.4,1.9s0.2,0.9-1.4,0.9s-4.9-0.7-6.7-2.5S2.1,5.7,1.2,3.5s-1.5-3-0.3-3.1
	c1.2,0,3.4,0,3.4,0S5.1,0.4,5.3,0.9z"/>
</svg>
