<svg id="Objects" xmlns="http://www.w3.org/2000/svg" xmlns:xlink="http://www.w3.org/1999/xlink" viewBox="0 0 26 15" style="enable-background:new 0 0 26 15"><style>.st0{fill:#185690}</style><path class="st0" d="M5.3.9c0 0 2.1 4.3 2.6 5s1.7 2.1 2 .9.2-3.4.2-3.4.0-2.2-1.3-2.3S9 .3 9.3.2c.3-.1 1.3-.1 3-.1s2.7.1 2.8 1.7.0 4.3.0 4.3.0 1.1.2 1.1c.3.0 1.3.1 2.3-2 1-2.1 2-4.6 2.7-4.6s4.4.0 4.4.0 2-.2.5 1.8c-1.4 2-3.3 4.7-3.3 4.7s-1.1 1.2-.2 2c.9.7 3.4 3.9 3.4 3.9s1.5 1.7-.5 1.7-3.4.0-3.4.0-1.7.1-2.1-.4c-.4-.5-2-2.4-2-2.4s-1.1-1-1.5.0c-.5 1.1-.4 1.9-.4 1.9s.2.9-1.4.9-4.9-.7-6.7-2.5S2.1 5.7 1.2 3.5s-1.5-3-.3-3.1c1.2.0 3.4.0 3.4.0S5.1.4 5.3.9z"/></svg>