<?xml version="1.0" encoding="utf-8"?>
<!-- Generator: Adobe Illustrator 23.0.5, SVG Export Plug-In . SVG Version: 6.00 Build 0)  -->
<svg version="1.1" id="Layer_1" xmlns="http://www.w3.org/2000/svg" xmlns:xlink="http://www.w3.org/1999/xlink" x="0px" y="0px"
	 viewBox="0 0 46 27" style="enable-background:new 0 0 46 27;" xml:space="preserve">
<style type="text/css">
	.st0{clip-path:url(#SVGID_2_);}
	.st1{clip-path:url(#SVGID_4_);fill:#FFFFFF;}
</style>
<g>
	<g>
		<defs>
			<rect id="SVGID_1_" width="46" height="26.53"/>
		</defs>
		<clipPath id="SVGID_2_">
			<use xlink:href="#SVGID_1_"  style="overflow:visible;"/>
		</clipPath>
		<g class="st0">
			<defs>
				<rect id="SVGID_3_" y="0" width="46" height="26.53"/>
			</defs>
			<clipPath id="SVGID_4_">
				<use xlink:href="#SVGID_3_"  style="overflow:visible;"/>
			</clipPath>
			<path class="st1" d="M9.19,1.37c0,0,3.75,7.76,4.71,8.97c0.97,1.21,3.08,3.7,3.68,1.65c0.59-2.05,0.39-6.13,0.39-6.13
				s-0.05-3.89-2.26-4.12C13.5,1.5,15.87,0.3,16.41,0.2c0.54-0.1,2.37-0.23,5.38-0.19c3.01,0.04,4.84,0.15,4.95,3
				c0.11,2.85,0,7.75,0,7.75s-0.05,1.95,0.43,2.02c0.48,0.07,2.26,0.26,4.1-3.53c1.84-3.8,3.5-8.19,4.92-8.21
				c1.42-0.02,7.92,0,7.92,0s3.51-0.43,0.98,3.25c-2.53,3.68-5.98,8.53-5.98,8.53s-1.98,2.22-0.41,3.54
				c1.58,1.32,6.07,7.08,6.07,7.08s2.69,3.04-0.97,3.04h-6.19c0,0-3.06,0.19-3.84-0.76c-0.78-0.95-3.66-4.28-3.66-4.28
				s-1.91-1.88-2.77,0.04c-0.86,1.92-0.75,3.37-0.75,3.37s0.43,1.71-2.53,1.7c-2.96-0.01-8.77-1.18-12.05-4.56
				C8.72,18.58,3.4,10.01,1.78,6.14S-0.97,0.7,1.19,0.65c2.1-0.05,6.13,0,6.13,0S8.75,0.46,9.19,1.37"/>
		</g>
	</g>
</g>
</svg>
