<svg id="Layer_1" xmlns="http://www.w3.org/2000/svg" xmlns:xlink="http://www.w3.org/1999/xlink" viewBox="0 0 46 27" style="enable-background:new 0 0 46 27"><style>.st0{clip-path:url(#SVGID_2_)}.st1{clip-path:url(#SVGID_4_);fill:#fff}</style><g><g><defs><path id="SVGID_1_" d="M0 0h46v26.53H0z"/></defs><clipPath id="SVGID_2_"><use xlink:href="#SVGID_1_" style="overflow:visible"/></clipPath><g class="st0"><defs><path id="SVGID_3_" d="M0 0h46v26.53H0z"/></defs><clipPath id="SVGID_4_"><use xlink:href="#SVGID_3_" style="overflow:visible"/></clipPath><path class="st1" d="M9.19 1.37c0 0 3.75 7.76 4.71 8.97.97 1.21 3.08 3.7 3.68 1.65.59-2.05.39-6.13.39-6.13s-.05-3.89-2.26-4.12C13.5 1.5 15.87.3 16.41.2c.54-.1 2.37-.23 5.38-.19 3.01.04 4.84.15 4.95 3 .11 2.85.0 7.75.0 7.75s-.05 1.95.43 2.02c.48.07 2.26.26 4.1-3.53 1.84-3.8 3.5-8.19 4.92-8.21 1.42-.02 7.92.0 7.92.0s3.51-.43.98 3.25c-2.53 3.68-5.98 8.53-5.98 8.53s-1.98 2.22-.41 3.54c1.58 1.32 6.07 7.08 6.07 7.08s2.69 3.04-.97 3.04h-6.19c0 0-3.06.19-3.84-.76-.78-.95-3.66-4.28-3.66-4.28s-1.91-1.88-2.77.04c-.86 1.92-.75 3.37-.75 3.37s.43 1.71-2.53 1.7c-2.96-.01-8.77-1.18-12.05-4.56C8.72 18.58 3.4 10.01 1.78 6.14S-.97.7 1.19.65c2.1-.05 6.13.0 6.13.0S8.75.46 9.19 1.37"/></g></g></g></svg>